<svg xmlns="http://www.w3.org/2000/svg" version="1.1" xmlns:xlink="http://www.w3.org/1999/xlink" xmlns:svgjs="http://svgjs.dev/svgjs" width="1500" height="1500" viewBox="0 0 1500 1500"><rect width="1500" height="1500" fill="#007bff"></rect><g transform="matrix(0.6666666666666666,0,0,0.6666666666666666,250,246.54832928343882)"><svg viewBox="0 0 280 281" data-background-color="#007bff" preserveAspectRatio="xMidYMid meet" height="1505" width="1500" xmlns="http://www.w3.org/2000/svg" xmlns:xlink="http://www.w3.org/1999/xlink"><g id="tight-bounds" transform="matrix(1,0,0,1,0,0.499986794094724)"><svg viewBox="0 0 280 280" height="280" width="280"><g><svg viewBox="0 0 280 280" height="280" width="280"><g><svg viewBox="0 0 280 280" height="280" width="280"><g id="textblocktransform"><svg viewBox="0 0 280 280" height="280" width="280" id="textblock"><g><svg viewBox="0 0 280 280" height="280" width="280"><g transform="matrix(1,0,0,1,91.75929983701135,90.50252531694167)"><svg viewBox="0 0 96.48140032597728 98.99494936611666" height="98.99494936611666" width="96.48140032597728"><g id="icon-0"><svg xmlns="http://www.w3.org/2000/svg" xmlns:xlink="http://www.w3.org/1999/xlink" version="1.1" x="0" y="0" viewBox="7.004467547818314 6.655 84.49084410685794 86.69201323777672" enable-background="new 0 0 100 100" xml:space="preserve" height="98.99494936611666" width="96.48140032597728" class="icon-jxe-0" data-fill-palette-color="accent" id="jxe-0"><g fill="#20c997" data-fill-palette-color="accent"><path d="M85.141 32.807L85.392 32.871A3 3 0 0 0 84.761 32.705 8 8 0 0 0 81.726 32.907C78.552 33.754 77.292 36.289 76.275 38.328L76.146 38.596C76.141 38.603 75.035 40.812 75.035 40.812L74.269 42.338C73.83 43.21 73.419 44.097 73.008 44.973 72.177 43.875 71.219 42.601 70.17 41.309 66.381 36.626 63.719 33.719 57.014 32.954A57 57 0 0 0 53.341 32.669C53.761 32.482 54.191 32.327 54.588 32.1 58.866 29.662 61.524 25.135 61.524 20.287 61.524 12.772 55.412 6.655 47.9 6.655 40.384 6.655 34.267 12.772 34.267 20.287 34.267 25.594 37.4 30.449 42.244 32.655 42.373 32.715 42.495 32.751 42.623 32.805A67 67 0 0 0 38.643 33.214C34.505 33.784 30.53 34.648 27.429 38.954 23.321 45.344 18.377 54.727 15.792 59.76 13.848 63.585 14.13 65.822 16.964 68.984 16.964 68.984 18.229 70.412 19.952 72.345L7.838 87.876 7.976 87.725A3.26 3.26 0 0 0 7.261 91.314 3.28 3.28 0 0 0 10.304 93.347H86.299A3.28 3.28 0 0 0 89.341 91.314 3.305 3.305 0 0 0 88.628 87.725L88.761 87.876 75.402 70.716C73.633 68.44 72.725 67.645 69.552 67.645H65.872A409 409 0 0 1 65.332 60.176 207 207 0 0 0 67.817 62.7L68.278 63.174C69.205 64.134 70.258 65.224 71.818 65.825 74.319 66.8 77.196 66.424 79.331 64.84 81.074 63.542 82.033 62.304 86.69 52.533L88.89 47.914C89.237 47.192 89.591 46.416 89.982 45.546 90.975 43.345 92.815 39.251 89.997 35.682A7.78 7.78 0 0 0 85.141 32.807M38.551 20.285C38.551 15.13 42.746 10.934 47.9 10.934 53.052 10.934 57.24 15.129 57.24 20.285 57.24 23.602 55.412 26.699 52.474 28.375 51.984 28.653 51.483 28.88 50.956 29.066 49.872 29.445 48.875 29.628 47.899 29.628A10 10 0 0 1 46.005 29.438C45.388 29.315 44.745 29.092 44.039 28.767 40.7 27.246 38.551 23.918 38.551 20.285M69.552 70.937C71.401 70.937 71.45 71.004 72.802 72.74L86.164 89.899 86.22 89.978 86.292 90.05V90.053H10.304V90.05S10.304 90.054 10.297 90.054L10.342 90.01C10.4 89.947 10.44 89.901 10.44 89.901L22.173 74.851C25.537 78.634 29.286 82.854 29.286 82.854 30.138 83.78 31.1 84.445 32.182 84.865A7.75 7.75 0 0 0 38.151 84.749 7.74 7.74 0 0 0 42.282 80.445C43.292 77.858 42.86 74.97 41.124 72.716 40.647 72.168 40.12 71.566 39.579 70.937zM86.086 43.787C85.706 44.627 85.354 45.379 85.026 46.084 85.019 46.088 82.833 50.685 82.833 50.685 78.454 59.858 77.678 60.731 76.778 61.403 75.82 62.114 74.512 62.281 73.367 61.834 72.685 61.571 72.067 60.936 71.359 60.199L70.844 59.674A218 218 0 0 1 64.411 52.978L60.386 48.591 60.701 54.539C60.925 58.879 61.222 63.199 61.582 67.645H36.749C36.409 67.245 36.09 66.863 35.76 66.48 35.406 66.069 35.071 65.674 34.743 65.29L34.616 51.793 27.461 63.319 28.394 64.421C28.452 64.49 34.336 71.463 37.825 75.435 38.545 76.383 38.759 77.71 38.294 78.887A3.47 3.47 0 0 1 36.434 80.823 3.5 3.5 0 0 1 33.741 80.88 3.4 3.4 0 0 1 32.468 79.992C32.506 80.033 20.154 66.131 20.154 66.131 18.519 64.306 18.476 63.932 19.609 61.708 22.147 56.752 27.018 47.509 30.968 41.365 32.86 38.746 35.053 38.031 39.229 37.46 41.031 37.211 43.038 37.064 45.083 36.964L46.228 41.213 43.662 61.025 48.082 65.302 52.231 60.776 48.84 41.166 50.37 36.876C52.552 36.912 54.686 37.001 56.532 37.212 61.622 37.792 63.373 39.714 66.847 44.007 67.97 45.398 69.037 46.822 69.903 47.97 70.726 49.073 71.382 49.946 71.845 50.461L73.987 52.877C73.979 52.897 75.363 49.981 75.363 49.981L76.581 47.432A112 112 0 0 1 78.104 44.252L78.864 42.735 79.975 40.504 80.112 40.234C81.044 38.367 81.586 37.376 82.827 37.046A3.6 3.6 0 0 1 84.176 36.955C84.286 36.988 84.359 37.022 84.511 37.043A3.5 3.5 0 0 1 86.642 38.334C87.663 39.63 87.251 41.186 86.086 43.787" fill="#20c997" data-fill-palette-color="accent"></path></g></svg></g></svg></g><g id="text-0"><path d="M19.801 100.391v0c2.645 3.291 3.621 5.747 2.929 7.37v0c-0.44 1.03-1.188 1.32-2.243 0.869v0c-0.625-0.267-1.22-0.806-1.787-1.619v0c-0.946-1.386-1.991-3.361-3.134-5.927-1.152-2.562-2.025-4.689-2.619-6.382v0l-3.427-2.832c0.521 1.418 0.516 2.972-0.015 4.663v0c-0.069 0.214-0.176 0.298-0.324 0.25-0.144-0.054-0.197-0.179-0.159-0.376v0l0.025-0.138c0.287-0.905 0.213-1.998-0.222-3.28-0.438-1.275-1.095-2.374-1.972-3.297v0c-0.228-0.196-0.205-0.609 0.071-1.236 0.279-0.619 0.537-0.867 0.774-0.743v0l4.301 4.313c-1.155-3.751-1.505-6.237-1.052-7.459v0c0.06-0.142 0.121-0.283 0.182-0.425v0c0.684-1.603 1.685-2.485 3.002-2.647v0c1.111-0.142 2.266 0.042 3.463 0.553v0c1.784 0.761 4.106 2.4 6.968 4.915v0c0.509 0.43 0.777 0.632 0.803 0.606 0.017-0.023-0.02-0.104-0.113-0.243-0.099-0.141-0.246-0.352-0.438-0.632-0.19-0.287-0.684-0.984-1.482-2.094v0c-2.914-3.999-5.165-7.765-6.755-11.298v0c-0.493-1.146-0.57-2.116-0.232-2.907v0c0.198-0.464 0.51-0.749 0.936-0.857 0.433-0.105 0.842-0.074 1.229 0.091 0.386 0.165 0.887 0.481 1.502 0.949 0.615 0.468 1.831 1.604 3.649 3.407v0c2.22 2.218 4.179 3.691 5.879 4.416v0c1.32 0.563 2.135 0.481 2.446-0.246v0c0.225-0.528 0.19-1.373-0.106-2.534v0c-0.542-1.815-1.188-3.361-1.936-4.64v0c-0.1-0.157-0.091-0.267 0.027-0.331 0.122-0.054 0.209-0.071 0.261-0.049 0.052 0.022 0.087 0.064 0.106 0.126v0c0.443 0.638 0.914 1.559 1.414 2.761v0c0.856 1.971 1.239 3.429 1.148 4.372v0c-0.031 0.466-0.13 0.892-0.295 1.279v0c-0.591 1.331-1.839 1.59-3.745 0.776v0c-0.992-0.423-1.902-0.956-2.731-1.6-0.829-0.643-1.465-1.151-1.908-1.522-0.439-0.362-0.948-0.812-1.526-1.347-0.578-0.536-1.013-0.961-1.305-1.277v0c-1.095-1.091-1.777-1.767-2.046-2.026-0.276-0.262-0.53-0.443-0.762-0.542-0.232-0.099-0.419-0.106-0.561-0.023-0.149 0.081-0.267 0.225-0.355 0.431-0.085 0.2-0.035 0.59 0.15 1.172v0c0.671 2.136 2.029 4.797 4.072 7.983 2.049 3.189 3.726 5.529 5.029 7.022v0c0.273 0.307 0.374 0.54 0.306 0.701-0.069 0.161-0.286 0.27-0.653 0.326-0.376 0.06-0.628 0.063-0.757 0.008-0.135-0.058-0.218-0.104-0.248-0.14v0c-1.114-1.1-2.381-2.09-3.802-2.97-1.424-0.89-2.623-1.542-3.595-1.957v0c-3.425-1.462-5.454-1.453-6.087 0.029v0c-0.588 1.378 0.004 4.592 1.777 9.641v0c0.448 0.412 1.232 1.215 2.352 2.408v0c1.455 1.603 2.652 2.989 3.591 4.159zM21.738 107.223v0c0.536-1.256-0.561-3.547-3.289-6.873v0c-1.513-1.841-2.783-3.243-3.811-4.206v0c0.552 1.507 1.289 3.222 2.211 5.145 0.913 1.927 1.616 3.32 2.111 4.178v0c0.651 1.115 1.237 1.784 1.758 2.006 0.515 0.22 0.855 0.137 1.02-0.25z" fill="#ffffff" data-fill-palette-color="primary"></path><path d="M44.011 81.381v0c-0.101 0.143-0.253 0.306-0.458 0.487v0c-0.883 0.758-1.691 0.879-2.424 0.364-0.728-0.511-1.311-1.63-1.749-3.358-0.436-1.718-0.593-4.809-0.47-9.272v0c-2.272-4.135-3.947-6.915-5.025-8.34v0c0.099 0.395 0.349 1.203 0.748 2.424 0.394 1.218 0.715 2.277 0.964 3.179 0.243 0.897 0.383 1.873 0.422 2.926 0.044 1.058-0.134 1.873-0.537 2.446-0.406 0.579-0.852 0.933-1.337 1.063-0.485 0.13-0.885 0.115-1.199-0.046-0.316-0.171-0.572-0.325-0.767-0.461v0c-0.67-0.471-1.211-1.12-1.622-1.948v0c-0.718-1.317-1.153-2.713-1.306-4.188v0c-0.085-0.573-0.035-0.991 0.149-1.255 0.181-0.258 0.431-0.437 0.75-0.539v0c0.417-0.058 0.682 0.021 0.796 0.238v0c-0.078 0.963 0.139 2.287 0.65 3.972v0c0.283 0.9 0.832 1.769 1.647 2.606v0c0.114 0.106 0.266 0.225 0.455 0.358 0.189 0.133 0.398 0.164 0.627 0.094 0.219-0.069 0.387-0.186 0.504-0.352v0c0.39-0.556 0.503-1.349 0.337-2.381-0.161-1.037-0.377-2.065-0.646-3.083-0.265-1.024-0.606-2.213-1.024-3.568-0.42-1.364-0.697-2.26-0.832-2.688-0.13-0.425-0.112-0.754 0.053-0.99v0c0.205-0.292 0.495-0.534 0.868-0.725 0.383-0.193 0.605-0.234 0.664-0.123 0.054 0.106 0.753 1.285 2.097 3.537 1.348 2.247 2.305 3.868 2.872 4.865v0c0.071-0.6 0.032-1.727-0.117-3.38-0.149-1.653-0.419-3.156-0.812-4.509v0c-0.089-0.336-0.024-0.466 0.196-0.388v0c0.046 0.007 0.11 0.039 0.19 0.095 0.08 0.056 0.154 0.189 0.221 0.398v0c0.355 1.079 0.658 2.626 0.911 4.643 0.257 2.011 0.332 3.518 0.226 4.521v0c2.083 3.746 3.346 6.169 3.79 7.267v0c1.05 2.756 1.113 4.793 0.188 6.111zM39.577 70.827v0c0.107 3.308 0.302 5.759 0.586 7.353 0.282 1.584 0.762 2.613 1.438 3.087 0.682 0.479 1.188 0.483 1.518 0.014v0c0.253-0.361 0.359-0.907 0.316-1.639-0.043-0.731-0.22-1.527-0.531-2.387-0.307-0.866-0.603-1.565-0.888-2.099-0.28-0.539-0.711-1.308-1.293-2.306-0.576-0.995-0.958-1.669-1.146-2.023z" fill="#ffffff" data-fill-palette-color="primary"></path><path d="M64.516 41.467v0c-0.512 0.457-1.086 0.56-1.721 0.312-0.635-0.249-1.263-0.721-1.883-1.417-0.625-0.7-1.334-1.789-2.127-3.267v0c-0.621 0.46-1.701 1.217-3.238 2.27v0c0.234 4.867 0.085 8.528-0.447 10.983v0c-0.434 2.132-1.351 3.823-2.75 5.072v0c-0.888 0.792-1.846 1.249-2.875 1.368-1.028 0.12-1.932-0.256-2.71-1.128v0c-0.144-0.162-0.24-0.348-0.288-0.56-0.042-0.216 0.009-0.327 0.153-0.333 0.14-0.012 0.349 0.139 0.629 0.452v0c0.499 0.559 1.091 0.786 1.776 0.681 0.686-0.115 1.34-0.449 1.961-1.004v0c1.353-1.207 2.291-2.832 2.814-4.875 0.518-2.048 0.761-5.361 0.729-9.939v0c-2.684 1.86-4.413 3.135-5.186 3.825v0c-2.089 1.864-2.772 3.702-2.047 5.514v0c0.096 0.234 0.214 0.429 0.354 0.585 0.14 0.157 0.297 0.27 0.471 0.339 0.175 0.06 0.277 0.147 0.305 0.263 0.023 0.11-0.019 0.205-0.127 0.283-0.104 0.083-0.231 0.103-0.383 0.06v0c-0.462-0.15-0.827-0.374-1.092-0.672v0c-0.909-1.019-1.395-1.936-1.458-2.753-0.063-0.817 0.093-1.509 0.468-2.078v0c0.446-0.699 1.064-1.4 1.853-2.104 0.789-0.704 3.059-2.166 6.809-4.387v0c-0.021-1.811-0.134-4.656-0.34-8.536-0.216-3.88-0.337-5.835-0.365-5.866v0l0.031-0.028c0.002-0.03 0.02-0.088 0.055-0.176v0c0.192-0.584 0.518-1.081 0.977-1.491v0c0.167-0.149 0.323-0.143 0.468 0.019v0c0.014 0.016 0.025 0.044 0.032 0.084 0.002 0.045 0.014 0.095 0.036 0.151 0.017 0.051 0.034 0.101 0.051 0.151v0c0.758 4.025 2.159 8.061 4.205 12.11v0l0.082 0.25 0.64-0.529c0.145-0.101 0.387-0.303 0.727-0.606 0.334-0.298 0.622-0.696 0.863-1.193 0.236-0.492 0.328-0.879 0.274-1.159-0.054-0.271 0.005-0.394 0.178-0.369 0.167 0.019 0.271 0.12 0.31 0.3v0c0.111 0.492 0.002 1.017-0.328 1.573v0c-0.247 0.512-0.564 0.94-0.95 1.285-0.392 0.35-0.645 0.576-0.76 0.678v0l-0.687 0.571c0.969 1.706 1.833 2.985 2.593 3.836 0.755 0.846 1.362 1.064 1.822 0.654v0c0.444-0.396 0.817-1.367 1.117-2.911 0.311-1.544 0.378-3.241 0.201-5.091v0c-0.008-0.115 0.043-0.193 0.155-0.237 0.111-0.033 0.187-0.027 0.229 0.021 0.047 0.052 0.092 0.124 0.137 0.216 0.039 0.096 0.077 0.396 0.112 0.899v0c0.126 1.539 0.053 3.166-0.218 4.881v0c-0.203 1.223-0.749 2.231-1.637 3.023zM54.789 27.839v0c-0.012-0.045-0.031-0.108-0.056-0.189-0.03-0.076-0.049-0.139-0.056-0.189v0c0.45 4.647 0.73 8.295 0.842 10.943v0l2.971-1.891c-1.144-2.207-2.377-5.099-3.701-8.674z" fill="#ffffff" data-fill-palette-color="primary"></path><path d="M74.143 25.227v0c0.508 0.822 0.692 1.869 0.549 3.143-0.152 1.271-0.489 2.509-1.011 3.713v0c-0.51 1.065-1.106 2.018-1.787 2.86-0.691 0.839-1.257 1.395-1.697 1.667-0.441 0.273-0.828 0.451-1.164 0.535v0c0.179 1.207 0.598 3.162 1.259 5.865v0c0.074 0.292 0.219 0.626 0.435 1.003 0.219 0.367 0.416 0.932 0.593 1.695 0.167 0.761 0.265 1.392 0.294 1.893v0c0.045 0.285-0.115 0.639-0.478 1.062-0.362 0.413-0.638 0.679-0.829 0.797-0.185 0.114-0.334 0.079-0.448-0.106v0c-0.048-0.077-0.086-0.198-0.113-0.362v0c-0.227-2.296-0.742-5.563-1.545-9.8-0.809-4.233-1.264-6.578-1.365-7.035-0.101-0.456-0.251-1.117-0.449-1.982v0c-0.324-1.454-0.654-2.493-0.99-3.116v0c-0.14-0.226 0.091-0.525 0.692-0.898 0.595-0.368 1.027-0.335 1.296 0.099v0c0.195 0.316 0.288 0.871 0.279 1.668-0.009 0.796 0.157 2.27 0.5 4.42v0c0.069-2.323 0.283-3.946 0.643-4.868v0c0.446-1.289 1.091-2.194 1.936-2.718v0c0.339-0.21 0.711-0.362 1.114-0.455v0c0.894-0.191 1.561-0.019 1.999 0.517v0c0.11 0.138 0.205 0.272 0.287 0.403zM72.525 25.685v0c-0.409-0.661-0.866-0.835-1.373-0.521v0c-0.304 0.188-0.681 0.669-1.133 1.442-0.458 0.777-0.802 1.731-1.032 2.862-0.231 1.131-0.337 2.123-0.319 2.976 0.027 0.856 0.085 1.713 0.172 2.573 0.097 0.862 0.151 1.368 0.162 1.518v0c1.143-0.707 2.091-1.982 2.845-3.823 0.754-1.842 1.111-3.553 1.071-5.134v0c0.014-0.815-0.117-1.446-0.393-1.893z" fill="#ffffff" data-fill-palette-color="primary"></path><path d="M86.447 18.904v0c0.419 0.87 0.491 1.931 0.215 3.183-0.285 1.248-0.75 2.444-1.397 3.586v0c-0.619 1.005-1.312 1.89-2.078 2.656-0.775 0.762-1.397 1.255-1.863 1.48-0.467 0.225-0.871 0.361-1.213 0.409v0c0.051 1.219 0.262 3.207 0.634 5.965v0c0.043 0.298 0.152 0.646 0.327 1.043 0.179 0.388 0.316 0.971 0.411 1.749 0.085 0.775 0.117 1.412 0.093 1.913v0c0.014 0.288-0.182 0.624-0.588 1.005-0.403 0.373-0.706 0.608-0.908 0.705-0.196 0.094-0.34 0.043-0.434-0.152v0c-0.039-0.082-0.064-0.206-0.074-0.372v0c0.016-2.307-0.153-5.61-0.505-9.908-0.358-4.295-0.564-6.675-0.617-7.139-0.053-0.464-0.132-1.137-0.237-2.019v0c-0.169-1.48-0.388-2.548-0.657-3.203v0c-0.115-0.24 0.145-0.513 0.783-0.82 0.631-0.304 1.057-0.225 1.278 0.235v0c0.161 0.334 0.195 0.897 0.102 1.688-0.093 0.791-0.083 2.274 0.032 4.448v0c0.313-2.303 0.697-3.894 1.152-4.773v0c0.579-1.234 1.316-2.067 2.212-2.499v0c0.36-0.173 0.745-0.285 1.156-0.335v0c0.909-0.096 1.554 0.145 1.933 0.724v0c0.095 0.149 0.176 0.292 0.243 0.431zM84.789 19.189v0c-0.337-0.7-0.774-0.921-1.31-0.663v0c-0.322 0.155-0.748 0.593-1.278 1.315-0.537 0.725-0.98 1.637-1.328 2.737-0.348 1.1-0.559 2.075-0.631 2.926-0.063 0.854-0.096 1.713-0.099 2.577 0.006 0.867 0.006 1.376 0 1.527v0c1.211-0.583 2.288-1.751 3.232-3.503 0.944-1.752 1.479-3.416 1.606-4.992v0c0.1-0.809 0.036-1.451-0.192-1.924z" fill="#ffffff" data-fill-palette-color="primary"></path><path d="M97.153 18.015v0c0.09-0.9 0.059-1.557-0.095-1.97-0.154-0.413-0.321-0.721-0.501-0.923-0.189-0.206-0.225-0.424-0.109-0.654 0.116-0.23 0.316-0.375 0.599-0.436v0c0.452-0.049 0.833 0.34 1.141 1.166 0.308 0.827 0.227 2.093-0.243 3.8v0c0.227 0.55 0.62 0.722 1.177 0.514 0.558-0.208 1.18-1.123 1.868-2.747v0c0.308-0.817 0.496-1.346 0.563-1.588 0.063-0.233 0.156-0.342 0.281-0.329 0.125 0.013 0.194 0.04 0.209 0.08v0c0.078 0.21-0.095 0.887-0.521 2.031v0c-0.637 1.881-1.411 2.991-2.323 3.331v0c-0.597 0.222-1.115 0.124-1.555-0.295v0c-0.252 0.587-0.506 1.137-0.763 1.652v0c-0.553 0.983-1.325 1.659-2.316 2.027v0c-0.558 0.208-1.072 0.25-1.544 0.127v0c-0.885-0.171-1.536-0.814-1.951-1.929v0c-0.455-1.22-0.503-2.614-0.145-4.181v0c0.203-0.92 0.518-1.777 0.947-2.572v0c0.685-1.271 1.479-2.075 2.384-2.412v0c0.23-0.086 0.458-0.133 0.687-0.144v0c0.699-0.029 1.156 0.245 1.371 0.823v0c0.178 0.479 0.143 0.765-0.107 0.858v0c-0.12 0-0.23-0.135-0.329-0.404v0c-0.139-0.374-0.416-0.484-0.829-0.33v0c-0.722 0.269-1.403 1.277-2.045 3.025-0.644 1.741-0.83 3.327-0.558 4.758v0c0.046 0.244 0.121 0.504 0.223 0.779 0.105 0.282 0.317 0.569 0.635 0.862 0.318 0.292 0.73 0.345 1.234 0.157 0.512-0.191 0.982-0.623 1.411-1.299 0.426-0.682 0.748-1.463 0.965-2.343v0l-0.168-0.15c-0.201-0.299-0.258-0.584-0.173-0.855 0.088-0.264 0.282-0.407 0.58-0.429z" fill="#ffffff" data-fill-palette-color="primary"></path><path d="M104.521 9.84v0c0.533-0.147 0.901-0.063 1.104 0.252v0c0.092 0.178 0.116 0.371 0.072 0.579-0.044 0.208-0.073 0.369-0.086 0.481-0.018 0.121-0.027 0.218-0.029 0.291v0c-0.051 0.239-0.099 0.47-0.147 0.694v0c-0.549 2.757-0.764 4.472-0.645 5.143v0c0.027 0.203 0.081 0.453 0.163 0.75 0.082 0.297 0.236 0.516 0.463 0.657v0c0.392 0.263 0.822 0.166 1.293-0.29 0.472-0.449 1.078-1.255 1.819-2.416 0.747-1.164 1.311-2.255 1.692-3.275v0c0.051-0.13 0.138-0.183 0.261-0.159 0.123 0.024 0.192 0.063 0.207 0.117 0.015 0.054 0.01 0.117-0.014 0.189v0c-0.166 0.663-0.539 1.553-1.117 2.671v0c-0.959 1.846-1.848 3.064-2.667 3.651v0c-0.481 0.336-0.904 0.553-1.269 0.654v0c-0.851 0.234-1.525-0.013-2.022-0.741v0c-0.081-0.137-0.152-0.314-0.211-0.53v0c-0.204-0.743-0.173-1.964 0.093-3.663v0c-0.043 0.266-0.312 0.913-0.805 1.942v0c-0.132 0.261-0.28 0.302-0.446 0.123v0c-0.033-0.042-0.06-0.1-0.08-0.174-0.02-0.074-0.004-0.173 0.049-0.297v0c0.69-1.584 1.209-2.906 1.556-3.967v0c-0.07-0.097-0.088-0.241-0.053-0.432v0c0.099-1.305 0.298-2.035 0.596-2.189v0c0.068-0.019 0.142-0.039 0.223-0.061zM105.876 4.904v0l0.028 1.092c0.054 0.196 0.001 0.544-0.159 1.046-0.16 0.501-0.314 0.772-0.463 0.813v0c-0.911 0.25-1.429 0.15-1.553-0.303v0c-0.022-0.081 0.326-0.598 1.044-1.55v0l0.433-0.565c0.256-0.39 0.428-0.597 0.515-0.621 0.081-0.022 0.133 0.007 0.155 0.088z" fill="#ffffff" data-fill-palette-color="primary"></path><path d="M119.505 6.519v0c0.497-0.087 0.792 0.139 0.886 0.677 0.093 0.531-0.027 1.305-0.361 2.323-0.339 1.026-0.575 1.853-0.707 2.48v0c-0.239 1.072-0.306 1.905-0.202 2.498 0.105 0.6 0.261 0.981 0.467 1.144v0c0.386 0.295 0.833 0.234 1.343-0.181 0.51-0.416 1.193-1.161 2.05-2.236 0.849-1.08 1.501-2.107 1.956-3.081v0c0.07-0.126 0.169-0.172 0.295-0.138 0.127 0.035 0.195 0.08 0.205 0.135 0.01 0.055-0.001 0.117-0.031 0.187v0c-0.222 0.643-0.677 1.494-1.366 2.552-0.688 1.066-1.373 1.942-2.055 2.631-0.69 0.689-1.414 1.1-2.173 1.233v0c-0.742 0.108-1.292 0.031-1.65-0.234-0.358-0.257-0.579-0.627-0.664-1.11-0.083-0.476-0.122-0.942-0.116-1.397 0.011-0.464 0.086-1.01 0.225-1.639v0c0.223-0.999 0.437-1.786 0.642-2.362 0.198-0.575 0.283-0.941 0.255-1.1-0.029-0.166-0.13-0.233-0.302-0.203v0c-0.345 0.06-0.933 0.6-1.763 1.62v0c-0.566 0.746-1.351 2.109-2.355 4.09-1.012 1.975-1.594 3.033-1.747 3.174v0c-0.71 0.529-1.166 0.812-1.366 0.846-0.193 0.034-0.296 0.016-0.308-0.052-0.011-0.062-0.006-0.155 0.015-0.28 0.027-0.133 0.137-0.763 0.33-1.892 0.193-1.128 0.399-2.369 0.618-3.722 0.226-1.347 0.365-2.16 0.415-2.439 0.051-0.279 0.078-0.511 0.081-0.696 0.002-0.192 0.012-0.357 0.03-0.496 0.018-0.138 0.075-0.301 0.171-0.488 0.089-0.179 0.23-0.292 0.42-0.34 0.199-0.042 0.455-0.062 0.768-0.06 0.312-0.005 0.487 0.103 0.525 0.324v0c0.027 0.152-0.036 0.504-0.188 1.056-0.145 0.551-0.521 2.426-1.127 5.623v0c0.612-1.095 1.405-2.371 2.379-3.827 0.982-1.458 1.825-2.587 2.532-3.386v0c0.725-0.731 1.349-1.142 1.873-1.234z" fill="#ffffff" data-fill-palette-color="primary"></path><path d="M130.475 5.315l0.427-0.066c1.683-0.291 2.706-0.451 3.069-0.48 0.363-0.029 0.549 0.012 0.558 0.123v0c0.011 0.133-0.236 0.29-0.742 0.471-0.511 0.189-1.756 0.472-3.734 0.85v0c-0.096 0.204-0.21 0.445-0.342 0.723v0c-0.285 0.557-0.434 0.892-0.445 1.005v0c-1.053 2.607-1.584 4.251-1.593 4.933v0c-0.012 0.205-0.005 0.46 0.02 0.768 0.025 0.307 0.136 0.551 0.333 0.731v0c0.336 0.331 0.777 0.316 1.324-0.044 0.547-0.353 1.293-1.032 2.238-2.035 0.951-1.004 1.709-1.971 2.273-2.902v0c0.075-0.118 0.181-0.152 0.318-0.099v0c0.348 0.133-0.151 1.048-1.495 2.744v0c-1.287 1.635-2.387 2.665-3.301 3.091v0c-0.535 0.24-0.992 0.375-1.368 0.405v0c-0.879 0.071-1.495-0.297-1.849-1.104v0c-0.054-0.15-0.09-0.337-0.108-0.56v0c-0.062-0.768 0.196-1.961 0.774-3.582v0c-0.092 0.253-0.476 0.839-1.154 1.758v0c-0.178 0.232-0.331 0.245-0.46 0.038v0c-0.025-0.047-0.04-0.109-0.047-0.186-0.006-0.077 0.028-0.171 0.104-0.283v0c0.973-1.427 1.729-2.63 2.268-3.607v0c-0.002-0.021 0.202-0.501 0.611-1.44v0c-0.213 0.059-0.435 0.098-0.665 0.117-0.237 0.019-0.414-0.037-0.53-0.168-0.123-0.138-0.148-0.308-0.073-0.51v0c0.125-0.361 0.692-0.607 1.7-0.738v0c0.018-0.044 0.058-0.068 0.12-0.073v0l1.406-3.201c0.07-0.181 0.153-0.371 0.249-0.568 0.096-0.197 0.169-0.347 0.217-0.449 0.041-0.102 0.092-0.211 0.152-0.329 0.054-0.117 0.103-0.198 0.149-0.244 0.038-0.045 0.077-0.094 0.115-0.146v0c0.081-0.133 0.334-0.217 0.759-0.251 0.433-0.035 0.735 0.06 0.908 0.285v0c0.07 0.086 0.114 0.233 0.13 0.442 0.017 0.209-0.041 0.446-0.174 0.71-0.133 0.264-0.282 0.458-0.448 0.584-0.165 0.126-0.278 0.258-0.337 0.396v0z" fill="#ffffff" data-fill-palette-color="primary"></path><path d="M139.267 5.847v0c-0.005 0.154-0.137 0.486-0.398 0.996-0.261 0.51-1.008 2.27-2.243 5.279v0c0.821-0.948 1.856-2.044 3.106-3.288v0c2.528-2.479 4.253-3.704 5.177-3.675v0c0.203 0.006 0.394 0.068 0.572 0.185 0.185 0.118 0.272 0.369 0.261 0.754-0.012 0.385-0.147 0.811-0.407 1.28-0.252 0.462-0.543 1.03-0.872 1.707-0.329 0.676-0.552 1.1-0.67 1.271v0c1.899-1.623 3.33-2.601 4.293-2.936 0.956-0.335 1.588-0.498 1.895-0.488 0.315 0.01 0.469 0.126 0.462 0.351v0c-0.004 0.133-0.182 0.446-0.533 0.939-0.345 0.501-0.731 1.238-1.16 2.213-0.422 0.982-0.664 1.671-0.726 2.068-0.054 0.398-0.086 0.75-0.095 1.059-0.009 0.308 0.07 0.562 0.239 0.763v0c0.318 0.367 0.769 0.402 1.352 0.105 0.583-0.29 1.403-0.881 2.461-1.774 1.05-0.892 1.896-1.77 2.539-2.632v0c0.094-0.109 0.2-0.134 0.317-0.074 0.124 0.06 0.185 0.118 0.184 0.173-0.002 0.056-0.028 0.115-0.079 0.176v0c-0.347 0.585-0.965 1.326-1.854 2.223v0c-1.453 1.482-2.661 2.384-3.624 2.705v0c-1.047 0.325-1.797 0.348-2.25 0.067-0.454-0.28-0.731-0.586-0.834-0.918-0.102-0.339-0.147-0.673-0.137-1.003v0c0.032-1.036 0.27-2.065 0.715-3.088 0.438-1.023 0.785-1.72 1.041-2.09v0c-0.851 0.331-1.581 0.75-2.192 1.257v0c-0.927 0.77-1.676 1.444-2.248 2.021v0l-0.683 0.704c-0.211 0.477-0.566 0.743-1.065 0.798-0.499 0.048-0.732-0.124-0.698-0.516v0c0.055-0.419 0.493-1.344 1.314-2.775 0.814-1.432 1.224-2.232 1.229-2.4 0.005-0.161-0.08-0.244-0.255-0.249v0c-0.399-0.012-1.13 0.417-2.193 1.288v0c-0.705 0.616-1.75 1.792-3.134 3.528-1.391 1.729-2.175 2.647-2.354 2.754v0c-0.81 0.374-1.313 0.559-1.509 0.553-0.196-0.006-0.293-0.044-0.29-0.114 0.002-0.063 0.036-0.16 0.103-0.291 0.074-0.131 0.805-2.027 2.192-5.69v0c-0.506 0.734-0.964 1.294-1.375 1.68v0c-0.181 0.191-0.267 0.149-0.259-0.123 0.009-0.28 0.093-0.515 0.253-0.707v0c1.034-1.271 1.795-2.351 2.284-3.239v0c0.157-0.766 0.436-1.209 0.84-1.33v0c0.241-0.084 0.521-0.075 0.839 0.026 0.319 0.094 0.476 0.253 0.469 0.477z" fill="#ffffff" data-fill-palette-color="primary"></path><path d="M163.727 6.714v0c1.176 0.185 1.674 0.845 1.495 1.979v0c-0.093 0.588-0.331 1.043-0.715 1.366v0c-0.673 0.716-1.668 1.279-2.987 1.687-1.312 0.41-2.398 0.579-3.258 0.507v0c-0.308-0.027-0.456-0.139-0.447-0.336v0c-0.007-0.093 0.03-0.144 0.109-0.153 0.079-0.009 0.14-0.01 0.181-0.003v0c0.511 0.038 1.192-0.099 2.043-0.412v0c1.583-0.558 2.779-1.199 3.587-1.922v0c0.345-0.343 0.545-0.694 0.602-1.054 0.057-0.36-0.091-0.567-0.444-0.622v0c-0.284-0.045-0.682 0.013-1.197 0.172v0c-1.1 0.323-2.31 0.986-3.63 1.991-1.322 1.011-2.245 2.056-2.769 3.135v0c-0.165 0.328-0.274 0.662-0.328 1.001-0.053 0.339 0.038 0.683 0.274 1.032 0.236 0.349 0.647 0.57 1.235 0.662v0c0.657 0.104 1.435 0.049 2.333-0.164v0c2.62-0.615 4.757-1.83 6.41-3.646v0c0.152-0.153 0.275-0.169 0.369-0.048v0c0.082 0.063 0.119 0.125 0.109 0.187-0.011 0.069-0.057 0.14-0.14 0.212v0c-0.822 0.99-1.802 1.832-2.938 2.524v0c-2.197 1.348-4.211 1.877-6.044 1.589v0c-1.57-0.247-2.596-0.887-3.078-1.921v0c-0.183-0.412-0.233-0.88-0.151-1.405 0.082-0.519 0.321-1.115 0.718-1.79v0c0.742-1.159 2.109-2.251 4.099-3.277 1.99-1.026 3.511-1.456 4.562-1.291z" fill="#ffffff" data-fill-palette-color="primary"></path><path d="M177.273 10.25v0c0.487 0.132 0.659 0.461 0.516 0.988-0.141 0.52-0.578 1.171-1.311 1.952-0.742 0.786-1.306 1.435-1.691 1.946v0c-0.671 0.87-1.084 1.596-1.242 2.177-0.159 0.588-0.18 0.999-0.061 1.235v0c0.224 0.431 0.656 0.565 1.293 0.404 0.638-0.161 1.573-0.546 2.804-1.156 1.226-0.618 2.252-1.273 3.077-1.963v0c0.117-0.084 0.226-0.084 0.326 0.001 0.1 0.085 0.143 0.155 0.129 0.209-0.015 0.054-0.05 0.106-0.108 0.155v0c-0.473 0.488-1.246 1.066-2.318 1.734-1.074 0.674-2.067 1.178-2.976 1.512-0.917 0.332-1.747 0.398-2.49 0.197v0c-0.718-0.216-1.183-0.519-1.397-0.911-0.215-0.385-0.259-0.813-0.13-1.287 0.126-0.466 0.288-0.905 0.486-1.315 0.207-0.415 0.506-0.878 0.898-1.389v0c0.625-0.81 1.153-1.432 1.582-1.867 0.423-0.437 0.655-0.733 0.697-0.889 0.044-0.162-0.019-0.266-0.187-0.311v0c-0.338-0.091-1.099 0.149-2.284 0.72v0c-0.829 0.436-2.117 1.338-3.865 2.707-1.753 1.361-2.729 2.072-2.928 2.135v0c-0.868 0.179-1.4 0.241-1.595 0.188-0.189-0.051-0.275-0.111-0.257-0.178 0.016-0.061 0.06-0.143 0.132-0.247 0.08-0.109 0.447-0.633 1.1-1.574 0.653-0.94 1.365-1.977 2.136-3.11 0.776-1.125 1.246-1.803 1.41-2.033 0.164-0.231 0.287-0.43 0.368-0.597 0.083-0.173 0.162-0.319 0.238-0.436 0.075-0.117 0.196-0.241 0.361-0.37 0.157-0.124 0.332-0.168 0.525-0.13 0.198 0.046 0.438 0.137 0.72 0.271 0.285 0.128 0.398 0.3 0.34 0.516v0c-0.04 0.149-0.246 0.441-0.619 0.877-0.365 0.438-1.499 1.977-3.402 4.617v0c1.018-0.733 2.277-1.553 3.776-2.46 1.507-0.905 2.749-1.57 3.727-1.994v0c0.966-0.355 1.706-0.463 2.22-0.324z" fill="#ffffff" data-fill-palette-color="primary"></path><path d="M187.72 13.807l0.415 0.121c1.648 0.45 2.642 0.739 2.983 0.866 0.341 0.127 0.492 0.243 0.453 0.348v0c-0.046 0.125-0.337 0.162-0.871 0.112-0.543-0.046-1.791-0.317-3.743-0.813v0c-0.173 0.145-0.379 0.315-0.616 0.51v0c-0.494 0.384-0.771 0.624-0.83 0.722v0c-2.059 1.915-3.236 3.179-3.532 3.794v0c-0.097 0.18-0.2 0.415-0.307 0.703-0.108 0.289-0.11 0.557-0.009 0.804v0c0.164 0.442 0.57 0.616 1.218 0.521 0.646-0.088 1.609-0.386 2.889-0.895 1.287-0.506 2.383-1.061 3.288-1.665v0c0.118-0.076 0.228-0.061 0.331 0.044v0c0.259 0.268-0.581 0.886-2.517 1.852v0c-1.858 0.936-3.291 1.403-4.299 1.401v0c-0.587-0.01-1.057-0.08-1.412-0.212v0c-0.827-0.308-1.229-0.903-1.206-1.784v0c0.014-0.159 0.061-0.343 0.139-0.553v0c0.269-0.722 1.009-1.694 2.219-2.916v0c-0.191 0.19-0.787 0.558-1.79 1.103v0c-0.26 0.135-0.404 0.081-0.433-0.161v0c-0.003-0.053 0.01-0.116 0.037-0.188 0.027-0.072 0.098-0.143 0.213-0.212v0c1.486-0.88 2.681-1.649 3.583-2.306v0c0.007-0.02 0.395-0.368 1.164-1.046v0c-0.218-0.036-0.435-0.095-0.652-0.176-0.223-0.083-0.359-0.209-0.409-0.376-0.054-0.177-0.004-0.341 0.15-0.494v0c0.267-0.274 0.884-0.257 1.853 0.052v0c0.034-0.032 0.081-0.037 0.14-0.015v0l2.629-2.303c0.14-0.135 0.295-0.271 0.467-0.409 0.171-0.138 0.3-0.243 0.386-0.315 0.08-0.075 0.173-0.152 0.278-0.233 0.098-0.083 0.178-0.136 0.238-0.158 0.054-0.025 0.109-0.053 0.165-0.084v0c0.129-0.086 0.394-0.055 0.795 0.095 0.407 0.152 0.641 0.366 0.701 0.642v0c0.027 0.107 0.004 0.259-0.069 0.456-0.073 0.197-0.226 0.386-0.458 0.569-0.232 0.182-0.45 0.295-0.654 0.339-0.203 0.044-0.361 0.116-0.472 0.216v0z" fill="#ffffff" data-fill-palette-color="primary"></path><path d="M221.51 22.45v0c-0.247 0.415-0.704 0.795-1.372 1.139v0c-0.587 0.344-1.112 0.508-1.576 0.493-0.466-0.024-0.633-0.148-0.5-0.37v0c0.011-0.018 0.184-0.07 0.519-0.156v0c0.976-0.218 1.577-0.517 1.803-0.895v0c0.483-0.813-0.082-1.698-1.696-2.657v0c-0.68-0.404-1.655-0.812-2.924-1.224-1.273-0.406-2.599-0.636-3.976-0.689v0c-1.613-0.054-2.564 0.162-2.854 0.65v0c-0.24 0.403-0.095 1.002 0.435 1.797v0c0.283 0.429 0.885 1.218 1.806 2.368 0.921 1.15 1.647 2.107 2.179 2.87 0.538 0.767 0.951 1.648 1.24 2.642 0.295 0.998 0.222 1.867-0.218 2.607-0.44 0.74-1.354 1.285-2.741 1.633v0c-2.088 0.486-4.442 0.521-7.061 0.105-2.625-0.42-4.696-1.08-6.213-1.981v0c-2.997-1.781-3.995-3.514-2.994-5.199 1.005-1.691 2.777-2.577 5.316-2.657v0c2.135-0.14 4.037 0.285 5.703 1.276v0c0.397 0.236 0.538 0.409 0.424 0.52v0c-0.121 0.107-0.448 0.007-0.981-0.302-0.537-0.303-1.327-0.528-2.371-0.675-1.038-0.144-2.117-0.097-3.236 0.142v0c-1.449 0.287-2.428 0.858-2.935 1.712v0c-0.315 0.53-0.341 1.157-0.08 1.883 0.265 0.719 1.117 1.506 2.555 2.361 1.444 0.858 3.004 1.475 4.678 1.85v0c3.631 0.797 6.179 0.825 7.645 0.084v0c0.558-0.255 0.929-0.535 1.111-0.842v0c0.518-0.873 0.395-1.871-0.371-2.994v0c-0.898-1.299-2.237-2.978-4.018-5.037v0c-0.681-0.787-1.184-1.591-1.511-2.412-0.317-0.823-0.282-1.56 0.104-2.211 0.39-0.656 1.129-1.092 2.218-1.308 1.086-0.21 2.244-0.206 3.474 0.012v0c2.647 0.465 4.72 1.143 6.219 2.033v0c2.089 1.241 2.822 2.385 2.199 3.432z" fill="#ffffff" data-fill-palette-color="primary"></path><path d="M223.763 37.097v0l0.532-0.424c0.272-0.347 0.278-0.623 0.019-0.825v0c-0.711-0.556-2.12-0.76-4.227-0.612-2.097 0.147-3.752 0.656-4.967 1.528v0c-0.317 0.223-0.568 0.454-0.754 0.691-0.185 0.237-0.286 0.474-0.302 0.71v0c-0.036 0.478 0.164 0.888 0.599 1.228 0.43 0.336 0.946 0.642 1.549 0.918v0c1.354 0.552 2.63 0.825 3.826 0.818 1.192-0.001 2.603-0.204 4.234-0.608v0c0.141-0.032 0.245 0.005 0.313 0.111 0.064 0.112 0.072 0.198 0.024 0.259-0.047 0.061-0.143 0.132-0.287 0.215v0c-1.712 0.474-3.302 0.706-4.77 0.696-1.462-0.006-2.871-0.374-4.228-1.106v0c-0.391-0.217-0.735-0.441-1.032-0.674v0c-0.849-0.664-1.333-1.38-1.453-2.149-0.118-0.759 0.022-1.392 0.419-1.899 0.392-0.502 0.941-0.953 1.644-1.353v0c1.212-0.652 2.937-0.943 5.175-0.873 2.238 0.07 3.776 0.433 4.614 1.089v0c0.204 0.16 0.381 0.342 0.531 0.548v0c0.352 0.55 0.377 1.019 0.075 1.405v0c-0.203 0.259-0.527 0.481-0.974 0.665-0.452 0.18-0.686 0.184-0.701 0.011-0.026-0.171 0.021-0.294 0.141-0.369z" fill="#ffffff" data-fill-palette-color="primary"></path><path d="M243.188 38.785v0c0.393 0.168 0.693 0.352 0.898 0.552v0c0.697 0.679 0.971 1.316 0.821 1.912v0c-0.06 0.313-0.158 0.539-0.295 0.68v0c-1.045 1.074-3.261 1.55-6.649 1.428v0c-2.963-0.148-5.609-0.369-7.94-0.664v0c-1.408 0.564-3.059 1.341-4.951 2.333v0c1.251-0.141 2.757-0.248 4.518-0.322v0c3.523-0.108 5.631 0.175 6.324 0.849v0c0.351 0.342 0.364 0.696 0.037 1.062v0c-0.321 0.391-0.734 0.664-1.237 0.819-0.503 0.155-0.974 0.298-1.412 0.427v0c-1.944 0.512-3.384 1.249-4.322 2.213v0c-0.308 0.316-0.467 0.605-0.478 0.868v0c-0.028 0.471 0.273 0.793 0.904 0.968 0.626 0.18 1.63 0.297 3.013 0.352 1.377 0.05 2.601-0.018 3.673-0.206v0c0.158-0.002 0.253 0.051 0.284 0.16 0.036 0.113 0.035 0.19-0.004 0.23-0.039 0.04-0.098 0.066-0.177 0.076v0c-0.651 0.197-1.605 0.324-2.861 0.381-1.252 0.052-2.205 0.038-2.86-0.042v0c-1.265-0.156-2.231-0.559-2.898-1.208v0c-0.597-0.581-0.708-1.27-0.333-2.068v0c0.091-0.194 0.232-0.389 0.423-0.585 0.19-0.196 0.411-0.387 0.66-0.573v0c0.725-0.594 2.152-1.223 4.282-1.885v0c0.434-0.135 0.707-0.26 0.819-0.376 0.117-0.12 0.113-0.242-0.012-0.363v0c-0.256-0.249-1.053-0.409-2.391-0.48v0c-0.936-0.022-2.503 0.138-4.701 0.48-2.189 0.342-3.385 0.492-3.588 0.451v0c-0.85-0.271-1.343-0.472-1.479-0.604-0.13-0.127-0.186-0.22-0.167-0.28 0.024-0.055 0.083-0.095 0.176-0.121 0.094-0.036 0.558-0.263 1.394-0.68v0c2.788-1.38 4.647-2.277 5.578-2.691v0c-1.166 0.155-2.546 0.273-4.139 0.354v0c-0.247 0.003-0.283-0.085-0.108-0.266 0.176-0.181 0.427-0.298 0.753-0.352 0.331-0.049 0.988-0.127 1.972-0.235 0.974-0.107 1.688-0.204 2.142-0.289v0c-0.062-0.217-0.03-0.401 0.097-0.551 0.132-0.145 0.275-0.197 0.428-0.154 0.159 0.047 0.313 0.231 0.461 0.551v0c0.37-0.069 0.75-0.174 1.139-0.313v0c5.816-2.223 9.885-2.836 12.206-1.838zM242.792 41.857v0c0.572-0.176 0.985-0.395 1.238-0.655 0.254-0.261 0.265-0.504 0.035-0.729-0.231-0.225-0.674-0.377-1.328-0.457v0c-3.03-0.369-6.763 0.32-11.2 2.07v0c1.678 0.333 3.613 0.493 5.806 0.477 2.203-0.015 4.019-0.251 5.449-0.706z" fill="#ffffff" data-fill-palette-color="primary"></path><path d="M245.164 55.742v0c0.755 0.92 0.689 1.744-0.198 2.472v0c-0.46 0.378-0.94 0.559-1.441 0.545v0c-0.979 0.088-2.096-0.154-3.354-0.725-1.253-0.566-2.176-1.162-2.771-1.788v0c-0.212-0.225-0.248-0.407-0.111-0.548v0c0.057-0.074 0.118-0.088 0.184-0.041 0.065 0.046 0.111 0.086 0.137 0.118v0c0.357 0.368 0.957 0.718 1.8 1.05v0c1.554 0.635 2.874 0.952 3.958 0.948v0c0.485-0.027 0.868-0.156 1.15-0.386 0.281-0.231 0.309-0.484 0.082-0.761v0c-0.182-0.222-0.518-0.444-1.009-0.666v0c-1.036-0.49-2.381-0.799-4.035-0.927-1.659-0.123-3.044 0.044-4.153 0.502v0c-0.342 0.136-0.645 0.312-0.91 0.53-0.265 0.218-0.426 0.535-0.482 0.952-0.056 0.417 0.105 0.856 0.482 1.316v0c0.422 0.514 1.039 0.99 1.852 1.428v0c2.366 1.282 4.77 1.795 7.213 1.538v0c0.215-0.014 0.318 0.056 0.308 0.209v0c0.02 0.101 0.005 0.172-0.043 0.212-0.054 0.044-0.136 0.066-0.245 0.066v0c-1.272 0.193-2.564 0.171-3.874-0.068v0c-2.537-0.453-4.394-1.397-5.571-2.831v0c-1.008-1.228-1.349-2.389-1.023-3.48v0c0.137-0.429 0.411-0.813 0.822-1.151 0.406-0.333 0.981-0.62 1.726-0.86v0c1.325-0.372 3.072-0.28 5.24 0.277 2.169 0.557 3.591 1.246 4.266 2.069z" fill="#ffffff" data-fill-palette-color="primary"></path><path d="M245.807 62.754c1.255 0.375 2.427 0.85 3.518 1.425 1.081 0.573 1.849 1.081 2.305 1.522 0.456 0.442 0.841 0.916 1.155 1.422 0.314 0.506 0.442 1.09 0.384 1.752v0c7.551-1.137 12.054-0.534 13.509 1.809v0c0.491 0.791 0.598 1.467 0.319 2.027v0c-0.145 0.271-0.3 0.458-0.467 0.562v0c-0.47 0.292-1.19 0.459-2.161 0.501-0.971 0.042-2.148-0.088-3.531-0.391-1.387-0.309-3.203-0.858-5.448-1.647-2.236-0.787-3.482-1.221-3.738-1.301v0c-1.765 0.264-3.396 0.629-4.893 1.097-1.501 0.462-2.57 0.891-3.206 1.287-0.642 0.399-1.081 0.828-1.315 1.286v0c-0.168 0.261-0.205 0.519-0.112 0.774 0.089 0.25 0.234 0.423 0.434 0.522 0.201 0.098 0.366 0.164 0.495 0.199 0.129 0.035 0.265 0.095 0.408 0.179 0.139 0.078 0.207 0.16 0.202 0.246-0.002 0.076-0.109 0.13-0.32 0.161v0c-0.286-0.036-0.536-0.079-0.748-0.129v0c-0.387-0.172-0.706-0.46-0.957-0.864-0.251-0.404-0.408-0.678-0.471-0.819v0c-0.409-0.99-0.034-1.846 1.126-2.566v0c1.124-0.698 2.259-1.193 3.405-1.484v0c1.563-0.402 2.881-0.701 3.954-0.898v0c-5.347-0.833-8.409-1.877-9.189-3.133v0c-0.188-0.303-0.3-0.683-0.336-1.138-0.036-0.456 0.034-0.907 0.21-1.354 0.176-0.447 0.451-0.787 0.825-1.02 0.375-0.233 0.783-0.371 1.226-0.415v0c1.018-0.113 2.157 0.016 3.417 0.388zM251.386 69.129l1.198-0.2c-0.027-0.296-0.216-0.727-0.567-1.292-0.347-0.559-1.03-1.141-2.048-1.744-1.008-0.602-2.103-1.084-3.284-1.447v0c-1.025-0.27-2.08-0.41-3.165-0.42-1.089-0.016-1.812 0.087-2.17 0.309v0c-0.69 0.428-0.913 0.839-0.669 1.231 0.244 0.393 0.935 0.796 2.074 1.209v0c3 1.022 5.877 1.806 8.631 2.354zM264.781 72.765v0c0.597-0.033 1.051-0.146 1.36-0.338 0.309-0.192 0.379-0.425 0.209-0.699-0.17-0.274-0.563-0.528-1.179-0.763v0c-2.852-1.089-6.641-1.319-11.369-0.691v0c1.548 0.728 3.388 1.349 5.52 1.863 2.142 0.516 3.961 0.725 5.459 0.628z" fill="#ffffff" data-fill-palette-color="primary"></path><path d="M258.518 87.681c-0.683-0.028-1.632-0.215-2.847-0.56-1.218-0.336-2.208-0.695-2.969-1.075v0c-0.969-0.495-1.69-1.204-2.162-2.126v0c-0.089-0.174-0.126-0.447-0.111-0.816 0.022-0.373 0.166-0.69 0.433-0.953 0.264-0.253 0.542-0.454 0.834-0.604v0c1.022-0.523 2.135-0.845 3.34-0.967v0c-0.076-0.04-0.632-0.097-1.669-0.172-1.043-0.072-2.096-0.276-3.157-0.613-1.068-0.334-1.782-0.854-2.142-1.558v0c-0.172-0.337-0.278-0.766-0.318-1.288v0c-0.053-0.964 0.394-1.688 1.341-2.173v0c1.153-0.59 2.547-0.801 4.184-0.632 1.633 0.163 2.546 0.333 2.738 0.51v0c0.225 0.255 0.406 0.516 0.543 0.783 0.134 0.262 0.218 0.557 0.252 0.886 0.034 0.328-0.165 0.384-0.599 0.165v0c-1.936-0.724-3.803-0.983-5.601-0.778v0c-0.704 0.085-1.255 0.23-1.654 0.433-0.405 0.207-0.614 0.444-0.627 0.711-0.013 0.266 0.031 0.499 0.133 0.698v0c0.239 0.467 0.898 0.94 1.977 1.419 1.072 0.481 3.016 0.906 5.831 1.274v0c0.398 0.04 1.15 0.088 2.256 0.143 1.106 0.055 1.762 0.093 1.968 0.112v0c0.16 0.312 0.273 0.718 0.341 1.218 0.07 0.491-0.048 0.728-0.355 0.713v0c-2.052-0.137-3.549-0.204-4.492-0.202-0.946-0.004-1.952 0.181-3.019 0.555v0c-0.19 0.074-0.423 0.181-0.697 0.321-0.274 0.14-0.459 0.333-0.553 0.578v0c-0.165 0.462 0.029 0.878 0.58 1.249 0.555 0.377 1.467 0.806 2.736 1.289 1.279 0.486 2.453 0.805 3.522 0.957v0c0.138 0.024 0.211 0.104 0.218 0.243 0.004 0.131-0.018 0.21-0.068 0.235-0.05 0.026-0.112 0.034-0.187 0.025z" fill="#ffffff" data-fill-palette-color="primary"></path><path d="M274.091 94.656v0c0.546 0.08 0.943 0.073 1.192-0.021v0c0.433-0.162 0.583-0.42 0.45-0.774v0c-0.108-0.288-0.41-0.586-0.907-0.894v0c-1.897-1.173-4.519-2.015-7.865-2.525v0c-2.693-0.404-4.944-0.596-6.754-0.575v0c1.503 1.059 3.68 2.06 6.531 3.003 2.853 0.949 5.304 1.545 7.353 1.786zM258.791 89.859v0c-0.792 0.02-1.311 0.062-1.557 0.124-0.243 0.069-0.568 0.179-0.975 0.332-0.4 0.15-0.728 0.392-0.983 0.727v0c-0.427 0.556-0.246 1.158 0.542 1.805v0c0.561 0.5 1.459 1.061 2.693 1.682 1.235 0.621 2.308 1.053 3.222 1.293v0c0.083 0.021 0.139 0.071 0.168 0.15v0c0.071 0.19-0.043 0.293-0.344 0.309v0c-0.673-0.099-1.602-0.405-2.789-0.918-1.177-0.508-2.146-1.009-2.906-1.501-0.76-0.493-1.268-1.08-1.524-1.762v0c-0.59-1.573-0.121-2.646 1.407-3.218v0c0.059-0.022 0.121-0.045 0.187-0.07v0c1.474-0.455 3.932-0.539 7.374-0.252 3.442 0.288 6.113 0.711 8.012 1.27v0l1.571 0.51c0.352 0.122 0.807 0.329 1.365 0.621v0c1.096 0.531 1.809 1.236 2.138 2.115 0.327 0.872 0.28 1.566-0.139 2.082v0c-0.147 0.167-0.397 0.317-0.751 0.45-0.347 0.13-0.9 0.162-1.658 0.094v0c-4.493-0.738-9.511-2.686-15.053-5.843z" fill="#ffffff" data-fill-palette-color="primary"></path><path d="M268.887 102.772v0c0.341 1.14-0.038 1.875-1.138 2.204v0c-0.57 0.171-1.083 0.153-1.54-0.054v0c-0.937-0.297-1.874-0.951-2.813-1.964-0.937-1.006-1.559-1.912-1.867-2.718v0c-0.108-0.289-0.072-0.472 0.11-0.548v0c0.081-0.046 0.143-0.035 0.185 0.032 0.042 0.068 0.069 0.122 0.082 0.162v0c0.187 0.478 0.605 1.032 1.254 1.663v0c1.188 1.186 2.283 1.987 3.285 2.404v0c0.458 0.163 0.861 0.192 1.21 0.087 0.349-0.104 0.472-0.328 0.369-0.67v0c-0.082-0.275-0.307-0.61-0.673-1.004v0c-0.767-0.852-1.888-1.656-3.364-2.413-1.483-0.754-2.825-1.135-4.025-1.14v0c-0.367-0.007-0.716 0.039-1.044 0.137-0.329 0.098-0.599 0.329-0.812 0.693-0.213 0.363-0.234 0.83-0.063 1.4v0c0.191 0.637 0.576 1.315 1.156 2.032v0c1.687 2.096 3.708 3.497 6.06 4.203v0c0.204 0.071 0.271 0.174 0.204 0.312v0c-0.021 0.101-0.061 0.161-0.122 0.179-0.067 0.02-0.151 0.009-0.252-0.034v0c-1.248-0.313-2.431-0.832-3.547-1.558v0c-2.165-1.398-3.514-2.985-4.046-4.762v0c-0.456-1.522-0.323-2.724 0.4-3.606v0c0.292-0.343 0.693-0.591 1.203-0.744 0.503-0.151 1.144-0.193 1.924-0.127v0c1.366 0.168 2.942 0.928 4.727 2.279 1.786 1.351 2.831 2.536 3.137 3.555z" fill="#ffffff" data-fill-palette-color="primary"></path><path d="M9.86 181.081v0c-3.723-0.381-5.879-1.295-6.467-2.741v0c-0.375-0.921-0.089-1.574 0.857-1.959v0c0.558-0.227 1.269-0.263 2.133-0.108v0c1.462 0.267 3.358 0.84 5.689 1.72 2.322 0.876 4.203 1.653 5.642 2.328v0l3.921-0.394c-1.216-0.555-2.193-1.526-2.931-2.911v0c-0.087-0.176-0.071-0.296 0.047-0.359 0.127-0.059 0.24-0.014 0.338 0.134v0l0.073 0.095c0.388 0.749 1.123 1.383 2.203 1.904 1.074 0.523 2.176 0.796 3.305 0.82v0c0.262-0.024 0.505 0.248 0.728 0.814 0.214 0.563 0.211 0.881-0.008 0.956v0l-5.403 0.012c3.085 1.616 4.869 2.946 5.354 3.988v0c0.053 0.13 0.104 0.256 0.154 0.379v0c0.583 1.433 0.515 2.61-0.206 3.531v0c-0.605 0.798-1.442 1.415-2.512 1.85v0c-1.589 0.647-4.067 1.085-7.435 1.316v0c-0.591 0.052-0.885 0.092-0.881 0.12 0.004 0.029 0.08 0.058 0.229 0.088 0.146 0.024 0.367 0.066 0.663 0.127 0.294 0.054 1.04 0.178 2.237 0.37v0c4.34 0.652 8.115 1.579 11.326 2.782v0c1.027 0.406 1.684 0.962 1.972 1.669v0c0.169 0.415 0.152 0.792-0.05 1.131-0.198 0.33-0.469 0.565-0.812 0.705-0.344 0.14-0.855 0.257-1.535 0.353-0.677 0.102-2.149 0.161-4.418 0.177v0c-2.783 0.015-4.934 0.331-6.45 0.948v0c-1.174 0.478-1.628 1.041-1.365 1.69v0c0.193 0.473 0.746 0.978 1.659 1.512v0c1.478 0.789 2.854 1.347 4.129 1.676v0c0.16 0.041 0.22 0.114 0.181 0.221-0.037 0.113-0.078 0.179-0.124 0.197-0.045 0.018-0.092 0.015-0.14-0.01v0c-0.685-0.122-1.557-0.398-2.617-0.829v0c-1.778-0.69-2.938-1.359-3.481-2.006v0c-0.268-0.306-0.473-0.632-0.612-0.975v0c-0.469-1.207 0.146-2.157 1.844-2.849v0c0.888-0.362 1.792-0.601 2.712-0.719 0.917-0.124 1.63-0.21 2.14-0.259 0.509-0.049 1.11-0.085 1.803-0.11 0.697-0.034 1.236-0.046 1.618-0.036v0c1.366-0.004 2.218-0.011 2.555-0.019 0.337-0.009 0.609-0.055 0.816-0.14 0.207-0.084 0.328-0.198 0.361-0.339 0.039-0.145 0.022-0.308-0.052-0.489-0.074-0.182-0.35-0.394-0.827-0.639v0c-1.761-0.908-4.283-1.711-7.567-2.407-3.28-0.705-5.797-1.113-7.551-1.223v0c-0.363-0.019-0.573-0.099-0.631-0.241-0.058-0.143 0.008-0.351 0.199-0.626 0.2-0.27 0.358-0.429 0.475-0.476 0.117-0.048 0.195-0.068 0.235-0.062v0c1.392-0.015 2.808-0.195 4.248-0.539 1.44-0.344 2.594-0.693 3.463-1.047v0c3.06-1.246 4.321-2.53 3.783-3.854v0c-0.502-1.232-2.896-2.861-7.183-4.887v0c-0.539 0.031-1.533 0.023-2.98-0.023v0c-1.915-0.082-3.533-0.194-4.854-0.337zM4.352 178.052v0c0.457 1.122 2.582 1.859 6.377 2.211v0c2.105 0.194 3.78 0.271 5.027 0.232v0c-1.292-0.593-2.832-1.201-4.622-1.826-1.78-0.621-3.094-1.046-3.943-1.274v0c-1.105-0.283-1.892-0.33-2.358-0.14-0.46 0.187-0.621 0.453-0.481 0.797z" fill="#ffffff" data-fill-palette-color="primary"></path><path d="M10.366 216.676v0c-0.085-0.128-0.17-0.307-0.255-0.536v0c-0.333-0.972-0.17-1.676 0.49-2.113 0.659-0.437 1.769-0.555 3.33-0.355 1.557 0.195 4.158 1.066 7.804 2.615v0c4.141-0.544 6.975-1.027 8.499-1.45v0c-0.359-0.048-1.105-0.103-2.239-0.167-1.138-0.069-2.114-0.149-2.929-0.238-0.825-0.092-1.679-0.29-2.561-0.596-0.883-0.305-1.496-0.718-1.84-1.237-0.344-0.519-0.491-1.001-0.442-1.446 0.044-0.441 0.186-0.765 0.425-0.974 0.243-0.203 0.452-0.363 0.628-0.479v0c0.601-0.398 1.313-0.635 2.137-0.71v0c1.313-0.173 2.605-0.08 3.875 0.279v0c0.497 0.116 0.822 0.291 0.977 0.524 0.159 0.239 0.229 0.504 0.211 0.793v0c-0.088 0.361-0.241 0.555-0.459 0.581v0c-0.772-0.379-1.931-0.627-3.478-0.744v0c-0.837-0.059-1.732 0.111-2.687 0.508v0c-0.128 0.06-0.277 0.146-0.447 0.258-0.169 0.112-0.263 0.275-0.281 0.488-0.012 0.21 0.03 0.387 0.127 0.534v0c0.333 0.502 0.951 0.852 1.855 1.05 0.904 0.199 1.822 0.355 2.754 0.468 0.928 0.107 2.019 0.208 3.273 0.301 1.264 0.095 2.09 0.156 2.478 0.185 0.398 0.03 0.668 0.153 0.812 0.369v0c0.17 0.257 0.275 0.574 0.314 0.95 0.036 0.371-0.001 0.563-0.109 0.577-0.109 0.013-1.308 0.212-3.599 0.595-2.294 0.378-3.942 0.642-4.942 0.793v0c0.475 0.248 1.416 0.578 2.823 0.99 1.41 0.418 2.741 0.683 3.99 0.794v0c0.297 0.03 0.381 0.125 0.253 0.287v0c-0.018 0.037-0.064 0.08-0.14 0.13-0.07 0.046-0.205 0.064-0.405 0.055v0c-1.002-0.067-2.373-0.317-4.113-0.752-1.744-0.44-3.014-0.867-3.809-1.281v0c-3.764 0.504-6.168 0.761-7.211 0.772v0c-2.617-0.021-4.32-0.627-5.109-1.817zM20.499 216.437v0c-2.76-0.985-4.842-1.617-6.245-1.896-1.403-0.28-2.408-0.219-3.015 0.184-0.613 0.406-0.778 0.822-0.495 1.248v0c0.217 0.327 0.63 0.59 1.241 0.79 0.615 0.206 1.329 0.32 2.143 0.344 0.814 0.024 1.486 0.006 2.018-0.053 0.538-0.063 1.31-0.171 2.317-0.325 1.012-0.158 1.691-0.255 2.036-0.292z" fill="#ffffff" data-fill-palette-color="primary"></path><path d="M49.617 246.573v0c-0.444-0.417-0.58-0.916-0.41-1.496 0.17-0.58 0.538-1.171 1.104-1.772 0.571-0.607 1.477-1.316 2.72-2.127v0c-0.452-0.511-1.205-1.407-2.26-2.686v0c-4.281 0.588-7.52 0.742-9.717 0.463v0c-1.918-0.218-3.482-0.895-4.691-2.032v0c-0.765-0.719-1.243-1.529-1.435-2.43-0.181-0.901 0.08-1.726 0.786-2.475v0c0.134-0.143 0.295-0.242 0.481-0.298 0.186-0.055 0.289-0.021 0.308 0.102 0.009 0.124-0.114 0.32-0.369 0.591v0c-0.451 0.479-0.603 1.019-0.455 1.619 0.152 0.595 0.498 1.146 1.039 1.654v0c1.168 1.098 2.675 1.799 4.523 2.104 1.847 0.305 4.79 0.261 8.829-0.131v0c-1.852-2.221-3.111-3.646-3.78-4.274v0c-1.811-1.702-3.484-2.161-5.02-1.376v0c-0.2 0.1-0.365 0.219-0.494 0.357-0.129 0.138-0.214 0.284-0.254 0.439-0.045 0.16-0.116 0.256-0.214 0.289-0.093 0.028-0.181-0.002-0.262-0.088-0.082-0.087-0.11-0.2-0.085-0.339v0c0.101-0.414 0.272-0.749 0.511-1.004v0c0.83-0.882 1.601-1.387 2.316-1.513 0.715-0.116 1.339-0.029 1.873 0.262v0c0.644 0.337 1.308 0.826 1.991 1.469 0.683 0.643 2.151 2.531 4.402 5.666v0c1.6-0.158 4.103-0.481 7.511-0.968 3.402-0.481 5.118-0.737 5.147-0.768v0l0.023 0.022c0.025-0.006 0.079 0.007 0.164 0.04v0c0.529 0.122 0.992 0.371 1.39 0.744v0c0.143 0.134 0.147 0.273 0.013 0.416v0c-0.01 0.01-0.034 0.021-0.073 0.032-0.034 0.006-0.076 0.02-0.125 0.041-0.049 0.021-0.09 0.04-0.125 0.056v0c-3.496 0.98-6.952 2.53-10.368 4.651v0l-0.205 0.095 0.513 0.512c0.103 0.126 0.3 0.325 0.591 0.598 0.291 0.273 0.662 0.497 1.112 0.672 0.456 0.169 0.807 0.22 1.053 0.153 0.236-0.067 0.348-0.023 0.338 0.131-0.005 0.149-0.087 0.245-0.244 0.289v0c-0.422 0.142-0.891 0.089-1.409-0.157v0c-0.476-0.178-0.882-0.426-1.219-0.742-0.332-0.312-0.548-0.515-0.65-0.612v0l-0.552-0.562c-1.436 0.985-2.496 1.843-3.182 2.572-0.691 0.735-0.837 1.289-0.439 1.663v0c0.383 0.36 1.267 0.615 2.653 0.765 1.386 0.15 2.892 0.077 4.518-0.221v0c0.094-0.018 0.162 0.022 0.204 0.12 0.047 0.093 0.05 0.162 0.007 0.208-0.038 0.041-0.099 0.085-0.182 0.131-0.078 0.042-0.339 0.095-0.783 0.158v0c-1.35 0.24-2.791 0.307-4.325 0.201v0c-1.097-0.09-2.029-0.495-2.793-1.214zM60.886 236.931v0c0.039-0.011 0.093-0.033 0.162-0.064 0.068-0.032 0.122-0.053 0.161-0.065v0c-4.067 0.759-7.263 1.291-9.586 1.596v0l1.896 2.475c1.856-1.177 4.311-2.491 7.367-3.942z" fill="#ffffff" data-fill-palette-color="primary"></path><path d="M68.838 252.619v0c-0.473 0.711-1.249 1.242-2.331 1.591-1.075 0.353-2.196 0.541-3.363 0.565v0c-1.043-0.012-2.03-0.138-2.962-0.38-0.929-0.247-1.582-0.496-1.962-0.748-0.385-0.256-0.673-0.506-0.863-0.75v0c-0.91 0.598-2.331 1.662-4.265 3.193v0c-0.204 0.167-0.413 0.406-0.627 0.718-0.225 0.313-0.611 0.679-1.158 1.097-0.551 0.424-1.023 0.737-1.417 0.937v0c-0.213 0.144-0.556 0.147-1.028 0.01-0.472-0.137-0.79-0.26-0.953-0.368-0.157-0.105-0.182-0.239-0.073-0.402v0c0.043-0.064 0.126-0.139 0.25-0.224v0c1.761-1.032 4.199-2.652 7.314-4.862 3.113-2.219 4.831-3.451 5.155-3.698 0.334-0.249 0.811-0.613 1.431-1.092v0c1.055-0.804 1.769-1.455 2.143-1.955v0c0.132-0.198 0.46-0.123 0.985 0.226 0.519 0.345 0.653 0.707 0.401 1.086v0c-0.182 0.274-0.598 0.552-1.248 0.835-0.644 0.286-1.767 0.965-3.369 2.035v0c1.894-0.801 3.279-1.23 4.156-1.285v0c1.2-0.111 2.167 0.078 2.902 0.566v0c0.292 0.194 0.552 0.434 0.782 0.721v0c0.485 0.65 0.59 1.249 0.317 1.799v0c-0.068 0.14-0.14 0.268-0.217 0.385zM67.866 251.482v0c0.38-0.571 0.351-1.002-0.087-1.293v0c-0.262-0.174-0.788-0.301-1.576-0.379-0.794-0.082-1.688-0.008-2.682 0.223-1 0.227-1.837 0.507-2.512 0.84-0.679 0.339-1.35 0.704-2.014 1.095-0.658 0.395-1.046 0.625-1.164 0.689v0c0.997 0.662 2.374 0.955 4.132 0.879 1.763-0.073 3.271-0.42 4.524-1.041v0c0.66-0.285 1.119-0.622 1.379-1.013z" fill="#ffffff" data-fill-palette-color="primary"></path><path d="M81.321 259.595v0c-0.394 0.758-1.11 1.368-2.147 1.831-1.031 0.466-2.126 0.773-3.284 0.921v0c-1.038 0.1-2.033 0.079-2.986-0.061-0.95-0.146-1.626-0.325-2.03-0.535-0.41-0.213-0.723-0.431-0.938-0.653v0c-0.841 0.691-2.14 1.902-3.899 3.63v0c-0.185 0.188-0.367 0.448-0.548 0.781-0.19 0.335-0.535 0.74-1.034 1.214-0.502 0.481-0.938 0.842-1.308 1.083v0c-0.197 0.166-0.537 0.206-1.021 0.121-0.484-0.086-0.813-0.174-0.987-0.265-0.168-0.087-0.206-0.218-0.116-0.391v0c0.036-0.068 0.11-0.152 0.224-0.251v0c1.641-1.214 3.892-3.086 6.753-5.614 2.858-2.538 4.435-3.948 4.731-4.229 0.305-0.283 0.74-0.696 1.306-1.238v0c0.963-0.912 1.604-1.636 1.922-2.173v0c0.11-0.211 0.444-0.172 1.003 0.12 0.553 0.287 0.724 0.633 0.515 1.036v0c-0.152 0.292-0.536 0.613-1.152 0.964-0.61 0.354-1.654 1.148-3.132 2.384v0c1.797-0.999 3.129-1.573 3.995-1.722v0c1.181-0.238 2.163-0.154 2.946 0.252v0c0.311 0.161 0.595 0.373 0.854 0.634v0c0.551 0.594 0.72 1.179 0.508 1.755v0c-0.052 0.146-0.111 0.282-0.175 0.406zM80.233 258.568v0c0.316-0.609 0.242-1.034-0.224-1.276v0c-0.28-0.145-0.815-0.215-1.608-0.209-0.799 0.003-1.679 0.172-2.643 0.508-0.97 0.332-1.772 0.7-2.408 1.104-0.639 0.41-1.267 0.844-1.885 1.304-0.612 0.463-0.973 0.733-1.083 0.81v0c1.062 0.552 2.463 0.696 4.201 0.432 1.745-0.261 3.207-0.767 4.387-1.519v0c0.626-0.353 1.046-0.738 1.263-1.154z" fill="#ffffff" data-fill-palette-color="primary"></path><path d="M90.464 266.799v0c0.595-0.537 0.966-0.988 1.113-1.352 0.147-0.363 0.223-0.665 0.229-0.904 0-0.242 0.106-0.403 0.32-0.482 0.216-0.086 0.433-0.063 0.651 0.071v0c0.327 0.238 0.343 0.72 0.049 1.447-0.291 0.72-1.101 1.499-2.428 2.337v0c-0.184 0.492-0.029 0.838 0.464 1.037 0.487 0.197 1.442-0.029 2.867-0.676v0c0.688-0.356 1.123-0.592 1.305-0.707 0.182-0.115 0.31-0.131 0.382-0.049 0.072 0.082 0.101 0.143 0.086 0.181v0c-0.073 0.182-0.588 0.521-1.545 1.019v0c-1.544 0.848-2.715 1.111-3.513 0.788v0c-0.526-0.213-0.804-0.589-0.834-1.13v0c-0.518 0.236-1.015 0.447-1.49 0.632v0c-0.949 0.311-1.858 0.291-2.728-0.061v0c-0.487-0.197-0.845-0.478-1.075-0.842v0c-0.481-0.64-0.525-1.447-0.132-2.42v0c0.433-1.071 1.233-2.012 2.399-2.825v0c0.687-0.485 1.408-0.858 2.163-1.119v0c1.204-0.419 2.205-0.468 3.004-0.145v0c0.195 0.079 0.372 0.181 0.533 0.306v0c0.472 0.402 0.605 0.856 0.4 1.362v0c-0.171 0.422-0.366 0.588-0.586 0.499v0c-0.075-0.076-0.065-0.23 0.029-0.464v0c0.131-0.325 0.018-0.559-0.339-0.703v0c-0.636-0.257-1.684-0.009-3.144 0.745-1.469 0.758-2.542 1.683-3.218 2.777v0c-0.114 0.188-0.219 0.402-0.317 0.642-0.1 0.247-0.133 0.562-0.099 0.946 0.034 0.384 0.271 0.665 0.713 0.843 0.448 0.181 1.016 0.177 1.704-0.013 0.686-0.183 1.361-0.499 2.026-0.948v0l-0.021-0.201c0.044-0.314 0.177-0.532 0.4-0.654 0.216-0.124 0.427-0.103 0.632 0.063z" fill="#ffffff" data-fill-palette-color="primary"></path><path d="M102.016 265.666v0c0.469 0.141 0.705 0.377 0.708 0.707v0c-0.01 0.18-0.083 0.337-0.218 0.472-0.127 0.13-0.224 0.236-0.293 0.317-0.068 0.082-0.118 0.151-0.15 0.207v0c-0.15 0.159-0.298 0.309-0.442 0.449v0c-1.707 1.811-2.678 2.996-2.912 3.554v0c-0.064 0.164-0.135 0.376-0.213 0.638-0.079 0.261-0.07 0.502 0.024 0.72v0c0.173 0.374 0.543 0.503 1.111 0.389 0.561-0.116 1.396-0.435 2.504-0.958 1.107-0.522 2.042-1.078 2.804-1.667v0c0.109-0.07 0.203-0.067 0.283 0.008 0.073 0.073 0.102 0.133 0.088 0.18-0.014 0.047-0.046 0.092-0.096 0.136v0c-0.435 0.425-1.136 0.919-2.102 1.484v0c-1.581 0.928-2.818 1.422-3.713 1.482v0c-0.52 0.026-0.937-0.008-1.253-0.103v0c-0.751-0.226-1.14-0.73-1.167-1.514v0c-0.002-0.139 0.025-0.303 0.082-0.49v0c0.198-0.657 0.794-1.559 1.79-2.708v0c-0.156 0.18-0.659 0.537-1.507 1.071v0c-0.231 0.135-0.365 0.095-0.402-0.121v0c-0.003-0.038 0.005-0.09 0.025-0.157 0.02-0.067 0.081-0.136 0.184-0.208v0c1.261-0.863 2.271-1.609 3.03-2.235v0c-0.012-0.106 0.041-0.222 0.159-0.347v0c0.69-0.933 1.185-1.387 1.485-1.363v0c0.054 0.016 0.117 0.035 0.191 0.057zM105.36 262.604v0l-0.49 0.828c-0.05 0.168-0.256 0.402-0.617 0.703-0.354 0.303-0.598 0.434-0.733 0.394v0c-0.798-0.24-1.137-0.558-1.018-0.953v0c0.022-0.074 0.525-0.299 1.508-0.676v0l0.592-0.217c0.38-0.171 0.607-0.245 0.681-0.223 0.074 0.022 0.1 0.07 0.077 0.144z" fill="#ffffff" data-fill-palette-color="primary"></path><path d="M116.874 268.915v0c0.44 0.087 0.613 0.363 0.522 0.83-0.092 0.467-0.439 1.07-1.041 1.807-0.602 0.738-1.061 1.347-1.376 1.827v0c-0.537 0.808-0.858 1.476-0.962 2.005-0.103 0.522-0.093 0.888 0.03 1.097v0c0.229 0.359 0.618 0.45 1.167 0.273 0.557-0.183 1.357-0.586 2.399-1.208 1.048-0.614 1.916-1.253 2.604-1.917v0c0.094-0.081 0.192-0.087 0.292-0.018 0.094 0.068 0.136 0.127 0.126 0.175-0.009 0.048-0.037 0.096-0.082 0.144v0c-0.391 0.465-1.04 1.026-1.947 1.683-0.907 0.656-1.752 1.161-2.535 1.513-0.79 0.351-1.521 0.46-2.194 0.328v0c-0.643-0.141-1.071-0.378-1.283-0.713-0.221-0.329-0.289-0.706-0.205-1.132 0.082-0.419 0.203-0.816 0.363-1.191 0.153-0.377 0.387-0.805 0.702-1.286v0c0.506-0.757 0.931-1.34 1.276-1.75 0.352-0.409 0.542-0.685 0.57-0.83 0.028-0.144-0.033-0.231-0.184-0.261v0c-0.309-0.061-0.967 0.199-1.973 0.779v0c-0.707 0.439-1.793 1.317-3.258 2.634-1.464 1.31-2.281 1.998-2.451 2.064v0c-0.756 0.215-1.22 0.306-1.391 0.272-0.179-0.035-0.262-0.084-0.25-0.145 0.011-0.055 0.048-0.133 0.111-0.235 0.061-0.095 0.35-0.58 0.864-1.457 0.52-0.868 1.087-1.827 1.701-2.876 0.619-1.041 0.992-1.667 1.118-1.877 0.135-0.216 0.232-0.4 0.291-0.553 0.06-0.159 0.122-0.293 0.186-0.402 0.057-0.11 0.155-0.226 0.294-0.349 0.13-0.117 0.282-0.166 0.457-0.146 0.173 0.027 0.389 0.091 0.647 0.192 0.258 0.101 0.369 0.247 0.331 0.439v0c-0.026 0.131-0.186 0.402-0.482 0.815-0.301 0.405-1.21 1.831-2.726 4.28v0c0.852-0.703 1.916-1.503 3.191-2.401 1.267-0.892 2.322-1.555 3.164-1.989v0c0.83-0.372 1.474-0.512 1.934-0.421z" fill="#ffffff" data-fill-palette-color="primary"></path><path d="M128.134 270.682l0.379 0.006c1.512 0.009 2.428 0.03 2.748 0.061 0.32 0.032 0.476 0.096 0.466 0.194v0c-0.012 0.118-0.254 0.218-0.726 0.297-0.465 0.081-1.592 0.131-3.381 0.151v0c-0.115 0.165-0.254 0.358-0.416 0.581v0c-0.332 0.438-0.513 0.705-0.544 0.801v0c-1.327 2.106-2.052 3.455-2.174 4.048v0c-0.031 0.173-0.06 0.395-0.087 0.666-0.027 0.272 0.027 0.506 0.162 0.702v0c0.241 0.333 0.63 0.39 1.166 0.169 0.529-0.222 1.286-0.696 2.272-1.421 0.986-0.725 1.797-1.451 2.432-2.176v0c0.093-0.089 0.193-0.1 0.299-0.034v0c0.279 0.168-0.303 0.888-1.745 2.16v0c-1.373 1.215-2.492 1.937-3.359 2.168v0c-0.505 0.126-0.921 0.173-1.249 0.14v0c-0.78-0.077-1.259-0.498-1.436-1.261v0c-0.029-0.137-0.033-0.302-0.014-0.498v0c0.068-0.683 0.48-1.683 1.236-3.001v0c-0.119 0.206-0.543 0.653-1.272 1.341v0c-0.2 0.177-0.34 0.163-0.418-0.041v0c-0.01-0.036-0.012-0.089-0.006-0.159 0.007-0.07 0.053-0.149 0.14-0.24v0c1.072-1.09 1.92-2.015 2.544-2.776v0c0.002-0.021 0.255-0.407 0.759-1.16v0c-0.199 0.015-0.399 0.013-0.601-0.006-0.202-0.02-0.346-0.098-0.431-0.233-0.085-0.135-0.081-0.286 0.013-0.452v0c0.163-0.3 0.696-0.423 1.599-0.37v0c0.025-0.04 0.065-0.057 0.121-0.051v0l1.721-2.563c0.099-0.152 0.202-0.304 0.308-0.454 0.114-0.158 0.2-0.279 0.258-0.365 0.057-0.079 0.122-0.164 0.194-0.255 0.065-0.092 0.121-0.157 0.167-0.195 0.038-0.031 0.08-0.066 0.127-0.104v0c0.088-0.104 0.32-0.137 0.695-0.099 0.383 0.038 0.631 0.168 0.743 0.39v0c0.055 0.083 0.073 0.218 0.054 0.406-0.018 0.181-0.108 0.376-0.269 0.586-0.155 0.217-0.318 0.366-0.487 0.447-0.162 0.075-0.277 0.17-0.345 0.283v0z" fill="#ffffff" data-fill-palette-color="primary"></path><path d="M137.526 271.564v0c0.002 0.133-0.103 0.432-0.314 0.896-0.204 0.458-0.795 2.041-1.773 4.75v0c0.688-0.863 1.564-1.87 2.627-3.018v0c2.132-2.297 3.608-3.452 4.427-3.462v0c0.182-0.002 0.354 0.044 0.516 0.14 0.169 0.096 0.256 0.315 0.261 0.658 0.005 0.343-0.099 0.726-0.31 1.149-0.204 0.423-0.439 0.937-0.704 1.543-0.272 0.613-0.452 0.997-0.541 1.152v0c1.618-1.506 2.845-2.426 3.681-2.76 0.836-0.333 1.39-0.502 1.663-0.505 0.273-0.004 0.411 0.092 0.413 0.288v0c0.002 0.112-0.142 0.398-0.429 0.857-0.288 0.452-0.601 1.118-0.939 1.997-0.338 0.887-0.526 1.505-0.563 1.856-0.03 0.35-0.044 0.662-0.04 0.935 0.004 0.273 0.084 0.499 0.24 0.68v0c0.298 0.304 0.697 0.316 1.198 0.036 0.507-0.28 1.21-0.836 2.109-1.667 0.892-0.831 1.606-1.643 2.141-2.434v0c0.083-0.099 0.177-0.125 0.283-0.077 0.106 0.048 0.159 0.096 0.159 0.145 0.001 0.049-0.016 0.102-0.05 0.158v0c-0.287 0.536-0.806 1.219-1.558 2.048v0c-1.228 1.361-2.26 2.205-3.096 2.531v0c-0.92 0.328-1.584 0.375-1.993 0.142-0.416-0.225-0.675-0.484-0.777-0.777-0.102-0.293-0.155-0.586-0.159-0.88v0c-0.012-0.917 0.157-1.837 0.508-2.758 0.352-0.922 0.63-1.552 0.836-1.891v0c-0.738 0.325-1.366 0.726-1.885 1.201v0c-0.789 0.711-1.424 1.336-1.907 1.875v0l-0.579 0.648c-0.169 0.429-0.474 0.679-0.914 0.748-0.44 0.062-0.652-0.082-0.636-0.433v0c0.037-0.372 0.386-1.206 1.048-2.503 0.669-1.297 1.002-2.019 1-2.167-0.002-0.147-0.08-0.219-0.234-0.217v0c-0.357 0.005-0.989 0.412-1.895 1.223v0c-0.594 0.575-1.472 1.658-2.634 3.249-1.162 1.584-1.819 2.426-1.972 2.526v0c-0.702 0.367-1.141 0.551-1.316 0.554-0.175 0.002-0.263-0.028-0.264-0.091-0.001-0.056 0.03-0.144 0.091-0.264 0.054-0.12 0.626-1.825 1.717-5.117v0c-0.425 0.664-0.81 1.177-1.156 1.539v0c-0.152 0.177-0.229 0.143-0.232-0.102-0.003-0.245 0.06-0.456 0.191-0.633v0c0.866-1.167 1.501-2.152 1.903-2.956v0c0.103-0.688 0.332-1.09 0.687-1.206v0c0.209-0.087 0.457-0.09 0.745-0.01 0.281 0.073 0.423 0.208 0.426 0.404z" fill="#ffffff" data-fill-palette-color="primary"></path><path d="M160.654 269.21v0c1.047-0.146 1.641 0.284 1.781 1.289v0c0.073 0.527-0.013 0.974-0.259 1.34v0c-0.386 0.782-1.083 1.515-2.09 2.2-1.007 0.685-1.885 1.107-2.633 1.267v0c-0.268 0.058-0.424 0.002-0.469-0.168v0c-0.031-0.073-0.014-0.125 0.053-0.155 0.066-0.03 0.117-0.048 0.151-0.053v0c0.445-0.104 0.988-0.396 1.628-0.874v0c1.199-0.881 2.046-1.73 2.54-2.548v0c0.208-0.382 0.29-0.733 0.245-1.052-0.044-0.319-0.223-0.457-0.534-0.413v0c-0.25 0.035-0.575 0.186-0.976 0.454v0c-0.848 0.556-1.702 1.432-2.561 2.625-0.859 1.194-1.374 2.315-1.546 3.364v0c-0.054 0.326-0.06 0.637-0.018 0.936 0.042 0.298 0.209 0.565 0.504 0.799 0.287 0.236 0.691 0.317 1.211 0.245v0c0.582-0.081 1.23-0.327 1.943-0.737v0c2.06-1.199 3.554-2.778 4.483-4.738v0c0.097-0.169 0.2-0.215 0.309-0.139v0c0.082 0.031 0.127 0.074 0.135 0.13 0.009 0.062-0.009 0.136-0.054 0.22v0c-0.448 1.045-1.064 2.007-1.846 2.886v0c-1.522 1.71-3.094 2.679-4.717 2.905v0c-1.394 0.194-2.429-0.086-3.107-0.84v0c-0.253-0.297-0.412-0.678-0.477-1.142-0.065-0.465-0.017-1.033 0.144-1.706v0c0.332-1.17 1.207-2.448 2.626-3.833 1.427-1.379 2.604-2.133 3.534-2.262z" fill="#ffffff" data-fill-palette-color="primary"></path><path d="M174.301 266.402v0c0.434-0.11 0.71 0.066 0.827 0.528 0.117 0.462 0.061 1.154-0.168 2.079-0.228 0.924-0.383 1.671-0.462 2.24v0c-0.14 0.96-0.144 1.701-0.012 2.223 0.13 0.516 0.296 0.842 0.497 0.979v0c0.361 0.227 0.751 0.142 1.171-0.252 0.425-0.404 0.976-1.11 1.652-2.119 0.685-1.004 1.196-1.952 1.533-2.846v0c0.051-0.114 0.136-0.161 0.257-0.141 0.114 0.022 0.177 0.056 0.189 0.104 0.012 0.048 0.008 0.103-0.012 0.166v0c-0.155 0.588-0.501 1.372-1.041 2.353-0.539 0.981-1.087 1.798-1.644 2.452-0.564 0.655-1.178 1.067-1.843 1.235v0c-0.641 0.148-1.13 0.116-1.465-0.095-0.34-0.203-0.563-0.515-0.67-0.936-0.105-0.414-0.165-0.825-0.181-1.232-0.023-0.406 0.005-0.893 0.085-1.462v0c0.133-0.9 0.268-1.61 0.404-2.128 0.143-0.52 0.196-0.851 0.161-0.993-0.036-0.143-0.129-0.195-0.278-0.158v0c-0.305 0.077-0.789 0.593-1.45 1.548v0c-0.451 0.699-1.058 1.957-1.819 3.774-0.763 1.81-1.207 2.782-1.332 2.915v0c-0.591 0.518-0.972 0.798-1.141 0.841-0.176 0.045-0.272 0.036-0.288-0.025-0.014-0.054-0.014-0.141-0.001-0.26 0.015-0.112 0.068-0.674 0.159-1.686 0.099-1.007 0.201-2.116 0.307-3.327 0.114-1.206 0.183-1.931 0.208-2.176 0.03-0.253 0.039-0.461 0.026-0.624-0.014-0.17-0.015-0.317-0.004-0.443 0.005-0.124 0.043-0.271 0.116-0.441 0.067-0.161 0.184-0.27 0.351-0.327 0.168-0.05 0.39-0.084 0.667-0.104 0.277-0.019 0.439 0.066 0.487 0.256v0c0.033 0.129 0.004 0.443-0.086 0.943-0.099 0.494-0.31 2.173-0.634 5.034v0c0.469-1 1.088-2.178 1.858-3.535 0.764-1.349 1.433-2.399 2.008-3.151v0c0.591-0.691 1.113-1.094 1.568-1.209z" fill="#ffffff" data-fill-palette-color="primary"></path><path d="M185.234 263.182l0.345-0.156c1.37-0.639 2.207-1.012 2.51-1.121 0.303-0.108 0.471-0.116 0.505-0.024v0c0.04 0.112-0.136 0.305-0.529 0.579-0.386 0.272-1.383 0.799-2.992 1.583v0c-0.033 0.198-0.076 0.432-0.127 0.704v0c-0.112 0.538-0.162 0.857-0.149 0.956v0c-0.299 2.471-0.376 4.001-0.233 4.589v0c0.046 0.17 0.115 0.383 0.207 0.64 0.092 0.257 0.241 0.445 0.447 0.565v0c0.361 0.198 0.736 0.083 1.125-0.347 0.383-0.427 0.865-1.179 1.446-2.257 0.581-1.078 1.004-2.08 1.267-3.006v0c0.046-0.121 0.131-0.173 0.255-0.159v0c0.324 0.033 0.107 0.932-0.652 2.698v0c-0.721 1.685-1.424 2.818-2.109 3.397v0c-0.403 0.33-0.759 0.55-1.068 0.661v0c-0.738 0.264-1.351 0.089-1.838-0.525v0c-0.084-0.111-0.16-0.259-0.226-0.443v0c-0.231-0.646-0.286-1.727-0.166-3.242v0c-0.019 0.237-0.211 0.823-0.577 1.756v0c-0.105 0.246-0.237 0.293-0.395 0.142v0c-0.025-0.028-0.049-0.075-0.073-0.141-0.024-0.066-0.016-0.158 0.024-0.277v0c0.502-1.444 0.873-2.643 1.111-3.598v0c-0.007-0.02 0.056-0.477 0.189-1.372v0c-0.173 0.099-0.355 0.183-0.546 0.251-0.191 0.068-0.354 0.06-0.488-0.026-0.135-0.086-0.195-0.224-0.182-0.415v0c0.019-0.341 0.448-0.681 1.287-1.018v0c0.006-0.047 0.035-0.079 0.087-0.098v0l0.459-3.052c0.025-0.18 0.053-0.361 0.085-0.543 0.036-0.191 0.061-0.338 0.076-0.441 0.018-0.096 0.04-0.2 0.067-0.313 0.02-0.111 0.042-0.194 0.067-0.247 0.021-0.045 0.044-0.094 0.07-0.148v0c0.035-0.131 0.23-0.261 0.586-0.388 0.363-0.13 0.642-0.118 0.838 0.035v0c0.085 0.051 0.16 0.166 0.224 0.344 0.061 0.171 0.064 0.386 0.007 0.644-0.047 0.262-0.131 0.467-0.249 0.613-0.114 0.138-0.178 0.272-0.191 0.403v0z" fill="#ffffff" data-fill-palette-color="primary"></path><path d="M210.84 241.841v0c0.216 0.369 0.313 0.888 0.291 1.558v0c0.017 0.598-0.081 1.074-0.297 1.426-0.215 0.353-0.381 0.43-0.498 0.231v0c-0.011-0.018 0.023-0.176 0.101-0.473v0c0.252-0.845 0.279-1.437 0.081-1.775v0c-0.424-0.725-1.352-0.669-2.785 0.17v0c-0.61 0.357-1.344 0.94-2.2 1.75-0.866 0.807-1.613 1.735-2.24 2.783v0c-0.735 1.225-0.975 2.055-0.721 2.49v0c0.209 0.356 0.736 0.502 1.582 0.437v0c0.456-0.039 1.324-0.17 2.605-0.393 1.285-0.216 2.34-0.368 3.166-0.453 0.82-0.082 1.677-0.024 2.571 0.174 0.901 0.195 1.544 0.622 1.93 1.28 0.385 0.659 0.415 1.603 0.087 2.832v0c-0.517 1.819-1.499 3.655-2.945 5.508-1.453 1.856-2.853 3.178-4.201 3.967v0c-2.665 1.559-4.435 1.59-5.312 0.091-0.877-1.498-0.802-3.249 0.223-5.253v0c0.803-1.719 1.945-3.012 3.425-3.878v0c0.356-0.209 0.552-0.242 0.587-0.1v0c0.037 0.132-0.177 0.343-0.641 0.631-0.468 0.282-0.981 0.797-1.541 1.546-0.563 0.743-0.991 1.598-1.285 2.565v0c-0.394 1.253-0.371 2.257 0.071 3.012v0c0.276 0.471 0.75 0.762 1.423 0.871 0.669 0.103 1.644-0.22 2.924-0.969 1.281-0.75 2.428-1.693 3.443-2.83v0c2.172-2.471 3.285-4.437 3.339-5.896v0c0.04-0.542-0.018-0.946-0.174-1.212v0c-0.456-0.779-1.283-1.111-2.48-0.994v0c-1.391 0.132-3.267 0.447-5.628 0.945v0c-0.904 0.188-1.742 0.232-2.514 0.133-0.772-0.1-1.33-0.443-1.673-1.029-0.339-0.58-0.356-1.337-0.051-2.27 0.296-0.936 0.792-1.834 1.489-2.696v0c1.497-1.849 2.913-3.165 4.249-3.946v0c1.855-1.085 3.055-1.163 3.599-0.233z" fill="#ffffff" data-fill-palette-color="primary"></path><path d="M223.686 243.321v0l-0.242-0.556c-0.235-0.305-0.469-0.368-0.702-0.189v0c-0.632 0.487-1.118 1.647-1.456 3.48-0.34 1.843-0.27 3.379 0.209 4.61v0c0.123 0.321 0.266 0.586 0.428 0.797 0.162 0.211 0.344 0.349 0.545 0.415v0c0.402 0.132 0.795 0.051 1.177-0.243 0.388-0.299 0.767-0.674 1.135-1.126v0c0.775-1.047 1.292-2.081 1.549-3.1 0.259-1.03 0.395-2.287 0.409-3.774v0c0.001-0.125 0.056-0.202 0.165-0.233 0.11-0.041 0.187-0.033 0.229 0.023 0.043 0.055 0.08 0.155 0.111 0.299v0c0.039 1.578-0.107 2.994-0.441 4.248-0.327 1.25-0.956 2.379-1.885 3.386v0c-0.272 0.289-0.539 0.534-0.8 0.735v0c-0.76 0.585-1.48 0.843-2.16 0.775-0.68-0.069-1.193-0.327-1.539-0.777-0.346-0.449-0.613-1.021-0.802-1.714v0c-0.291-1.181-0.162-2.724 0.385-4.63 0.557-1.904 1.208-3.143 1.951-3.715v0c0.189-0.145 0.383-0.26 0.584-0.344v0c0.552-0.178 0.961-0.095 1.225 0.25v0c0.179 0.233 0.299 0.561 0.359 0.982 0.054 0.426 0.006 0.627-0.146 0.603-0.153-0.015-0.249-0.082-0.288-0.202z" fill="#ffffff" data-fill-palette-color="primary"></path><path d="M227.598 225.228v0c0.155-0.343 0.324-0.603 0.506-0.777v0c0.621-0.597 1.192-0.82 1.714-0.671v0c0.276 0.065 0.475 0.161 0.596 0.286v0c0.922 0.959 1.276 2.934 1.062 5.926v0c-0.221 2.62-0.495 4.956-0.823 7.01v0c0.46 1.267 1.099 2.75 1.916 4.45v0c-0.082-1.106-0.129-2.439-0.143-3.999v0c0.008-3.124 0.323-4.984 0.944-5.581v0c0.308-0.296 0.617-0.297 0.928-0.004v0c0.341 0.294 0.571 0.67 0.69 1.128 0.125 0.453 0.238 0.874 0.339 1.262v0c0.391 1.731 1.001 3.028 1.831 3.891v0c0.267 0.278 0.521 0.426 0.763 0.446v0c0.41 0.033 0.703-0.224 0.877-0.769 0.179-0.551 0.313-1.437 0.403-2.659 0.084-1.216 0.058-2.304-0.076-3.262v0c0.003-0.139 0.054-0.222 0.153-0.249 0.095-0.023 0.159-0.017 0.193 0.019 0.034 0.035 0.058 0.085 0.071 0.15v0c0.157 0.587 0.241 1.438 0.254 2.552 0.008 1.109-0.034 1.955-0.125 2.538v0c-0.176 1.111-0.559 1.95-1.15 2.517v0c-0.535 0.514-1.153 0.593-1.854 0.237v0c-0.162-0.087-0.327-0.219-0.497-0.396-0.17-0.177-0.334-0.378-0.493-0.604v0c-0.497-0.659-1.011-1.936-1.542-3.833v0c-0.101-0.388-0.203-0.635-0.305-0.742-0.102-0.106-0.208-0.106-0.319 0.001v0c-0.227 0.218-0.395 0.918-0.503 2.1v0c-0.041 0.826 0.057 2.217 0.296 4.172 0.233 1.951 0.328 3.014 0.285 3.192v0c-0.263 0.747-0.454 1.179-0.576 1.296-0.116 0.112-0.199 0.157-0.248 0.136-0.049-0.021-0.088-0.076-0.115-0.166-0.028-0.08-0.213-0.494-0.555-1.244v0c-1.133-2.513-1.872-4.187-2.216-5.02v0c0.103 1.037 0.168 2.261 0.194 3.672v0c-0.004 0.218-0.084 0.246-0.24 0.085-0.155-0.162-0.252-0.389-0.291-0.682-0.034-0.288-0.082-0.868-0.143-1.741-0.072-0.873-0.136-1.51-0.192-1.912v0c-0.199 0.055-0.362 0.022-0.488-0.099-0.126-0.121-0.168-0.251-0.126-0.389 0.042-0.138 0.211-0.266 0.505-0.383v0c-0.048-0.333-0.133-0.674-0.254-1.023v0c-1.787-5.215-2.202-8.835-1.246-10.861zM230.3 225.676v0c-0.143-0.513-0.326-0.885-0.549-1.118-0.223-0.232-0.436-0.251-0.638-0.057-0.207 0.199-0.358 0.587-0.454 1.164v0c-0.41 2.675 0.09 6 1.501 9.975v0c0.346-1.469 0.546-3.175 0.6-5.12 0.054-1.955-0.099-3.569-0.46-4.844z" fill="#ffffff" data-fill-palette-color="primary"></path><path d="M242.385 221.527v0c0.675-0.813 1.403-0.896 2.184-0.248v0c0.409 0.34 0.647 0.728 0.712 1.165v0c0.242 0.838 0.221 1.849-0.061 3.033-0.283 1.185-0.646 2.088-1.09 2.711v0c-0.158 0.224-0.311 0.287-0.46 0.192v0c-0.073-0.033-0.095-0.083-0.066-0.15 0.029-0.067 0.054-0.114 0.076-0.142v0c0.258-0.377 0.463-0.958 0.614-1.742v0c0.292-1.459 0.345-2.657 0.158-3.594v0c-0.104-0.423-0.28-0.737-0.527-0.943-0.248-0.206-0.472-0.187-0.674 0.055v0c-0.161 0.194-0.299 0.525-0.415 0.993v0c-0.252 0.983-0.292 2.205-0.122 3.666 0.17 1.461 0.546 2.636 1.126 3.527v0c0.18 0.277 0.386 0.511 0.617 0.703 0.232 0.192 0.535 0.276 0.911 0.251 0.371-0.02 0.724-0.231 1.06-0.635v0c0.376-0.453 0.689-1.071 0.938-1.855v0c0.714-2.274 0.753-4.447 0.118-6.521v0c-0.043-0.19 0.003-0.294 0.135-0.311v0c0.082-0.032 0.144-0.031 0.187 0.005 0.048 0.04 0.084 0.106 0.108 0.199v0c0.373 1.074 0.567 2.199 0.582 3.376v0c0.029 2.289-0.48 4.064-1.526 5.325v0c-0.899 1.083-1.852 1.574-2.861 1.474v0c-0.387-0.049-0.761-0.223-1.122-0.522-0.361-0.3-0.709-0.752-1.044-1.358v0c-0.544-1.088-0.758-2.622-0.643-4.601 0.124-1.98 0.486-3.331 1.085-4.053z" fill="#ffffff" data-fill-palette-color="primary"></path><path d="M249.266 217.536c-0.189-1.145-0.267-2.262-0.235-3.351 0.038-1.085 0.147-1.894 0.326-2.426 0.173-0.537 0.399-1.027 0.679-1.471 0.284-0.45 0.702-0.778 1.254-0.985v0c-3.833-5.578-5.098-9.4-3.795-11.467v0c0.437-0.693 0.932-1.039 1.486-1.037v0c0.272 0.014 0.482 0.068 0.63 0.162v0c0.415 0.261 0.827 0.769 1.237 1.524 0.41 0.755 0.763 1.743 1.06 2.965 0.288 1.224 0.551 2.88 0.791 4.968 0.242 2.097 0.381 3.261 0.419 3.491v0c0.894 1.3 1.816 2.456 2.766 3.469 0.956 1.017 1.713 1.7 2.269 2.052 0.563 0.355 1.071 0.539 1.526 0.552v0c0.277 0.034 0.497-0.034 0.662-0.203 0.168-0.175 0.251-0.359 0.249-0.551 0.001-0.198-0.01-0.358-0.033-0.48-0.02-0.112-0.024-0.238-0.01-0.379 0.012-0.15 0.047-0.239 0.107-0.268 0.065-0.025 0.152 0.042 0.259 0.201v0c0.084 0.235 0.144 0.447 0.182 0.636v0c0.019 0.376-0.083 0.742-0.307 1.097-0.224 0.355-0.382 0.587-0.475 0.694v0c-0.631 0.711-1.458 0.744-2.482 0.099v0c-0.989-0.623-1.823-1.335-2.502-2.136v0c-0.927-1.089-1.676-2.021-2.248-2.795v0c1.409 4.579 1.764 7.422 1.066 8.529v0c-0.168 0.267-0.427 0.5-0.778 0.702-0.348 0.211-0.734 0.331-1.159 0.362-0.425 0.03-0.803-0.059-1.134-0.268-0.332-0.209-0.599-0.481-0.802-0.816v0c-0.484-0.768-0.82-1.725-1.008-2.87zM252.178 210.632l-0.626-0.878c-0.224 0.132-0.493 0.447-0.806 0.944-0.314 0.497-0.512 1.266-0.597 2.305-0.094 1.042-0.054 2.101 0.119 3.179v0c0.183 0.918 0.479 1.813 0.89 2.683 0.411 0.871 0.773 1.406 1.087 1.604v0c0.61 0.385 1.023 0.405 1.24 0.062 0.22-0.349 0.273-1.057 0.158-2.122v0c-0.347-2.784-0.836-5.376-1.465-7.777zM249.888 198.55v0c-0.262-0.463-0.53-0.781-0.802-0.952-0.272-0.172-0.483-0.139-0.633 0.097-0.153 0.243-0.207 0.656-0.16 1.24v0c0.246 2.695 1.531 5.802 3.856 9.321v0c-0.017-1.509-0.234-3.213-0.649-5.114-0.418-1.91-0.955-3.441-1.612-4.592z" fill="#ffffff" data-fill-palette-color="primary"></path><path d="M263.864 194.799c0.338 0.505 0.697 1.284 1.075 2.338 0.379 1.053 0.629 1.95 0.752 2.691v0c0.145 0.957 0.008 1.843-0.412 2.658v0c-0.08 0.156-0.259 0.319-0.537 0.491-0.275 0.181-0.574 0.244-0.899 0.187-0.325-0.057-0.615-0.151-0.87-0.283v0c-0.902-0.465-1.709-1.101-2.42-1.908v0c0.012 0.069 0.259 0.499 0.741 1.291 0.485 0.785 0.88 1.647 1.185 2.584 0.311 0.94 0.305 1.724-0.019 2.352v0c-0.151 0.293-0.402 0.589-0.752 0.888v0c-0.676 0.534-1.432 0.586-2.266 0.156v0c-1.021-0.526-1.894-1.421-2.621-2.685-0.721-1.261-1.065-2.006-1.035-2.234v0c0.066-0.297 0.159-0.56 0.277-0.79 0.122-0.236 0.292-0.452 0.511-0.647 0.218-0.195 0.363-0.077 0.432 0.353v0c0.47 1.762 1.245 3.24 2.323 4.433v0c0.427 0.456 0.817 0.775 1.172 0.958 0.355 0.183 0.631 0.211 0.831 0.085 0.199-0.126 0.343-0.276 0.432-0.45v0c0.215-0.417 0.216-1.137 0.003-2.16-0.207-1.02-0.906-2.636-2.097-4.849v0c-0.172-0.309-0.522-0.875-1.051-1.699-0.529-0.824-0.842-1.316-0.94-1.476v0c0.141-0.274 0.373-0.564 0.696-0.87 0.323-0.306 0.56-0.346 0.711-0.119v0c0.958 1.549 1.681 2.661 2.167 3.338 0.483 0.682 1.136 1.31 1.959 1.883v0c0.146 0.099 0.34 0.211 0.583 0.336 0.243 0.125 0.48 0.161 0.713 0.107v0c0.408-0.12 0.607-0.475 0.595-1.064-0.018-0.592-0.183-1.472-0.494-2.64-0.302-1.172-0.677-2.18-1.124-3.024v0c-0.052-0.113-0.032-0.205 0.06-0.277 0.095-0.077 0.164-0.104 0.207-0.082 0.044 0.022 0.081 0.065 0.112 0.128z" fill="#ffffff" data-fill-palette-color="primary"></path><path d="M258.403 178.684v0c-0.318-0.367-0.588-0.592-0.812-0.677v0c-0.38-0.143-0.628-0.061-0.744 0.247v0c-0.096 0.255-0.073 0.631 0.07 1.126v0c0.582 1.888 1.841 3.979 3.774 6.272v0c1.557 1.844 2.943 3.287 4.159 4.329v0c-0.381-1.588-1.248-3.527-2.599-5.817-1.342-2.294-2.625-4.121-3.848-5.48zM265.794 190.808v0c0.541 0.451 0.912 0.726 1.115 0.825 0.202 0.099 0.48 0.215 0.834 0.348 0.36 0.136 0.719 0.166 1.076 0.091v0c0.616-0.127 0.852-0.633 0.707-1.517v0c-0.087-0.661-0.363-1.558-0.826-2.691-0.454-1.136-0.917-2.052-1.388-2.746v0c-0.038-0.059-0.043-0.125-0.016-0.197v0c0.062-0.164 0.197-0.165 0.406-0.004v0c0.388 0.46 0.825 1.205 1.312 2.235 0.494 1.032 0.85 1.933 1.068 2.703 0.218 0.771 0.214 1.457-0.014 2.06v0c-0.524 1.389-1.46 1.829-2.809 1.32v0c-0.052-0.02-0.108-0.041-0.167-0.063v0c-1.25-0.554-2.938-1.931-5.064-4.132-2.126-2.201-3.66-4.044-4.604-5.529v0l-0.743-1.245c-0.166-0.294-0.351-0.697-0.554-1.208v0c-0.418-0.995-0.48-1.883-0.186-2.663 0.291-0.773 0.728-1.207 1.31-1.301v0c0.198-0.03 0.451 0.013 0.76 0.129 0.314 0.119 0.701 0.422 1.161 0.909v0c2.566 3.115 4.774 7.34 6.622 12.676z" fill="#ffffff" data-fill-palette-color="primary"></path><path d="M266.29 174.47v0c0.299-1.014 0.936-1.377 1.91-1.089v0c0.51 0.151 0.882 0.414 1.114 0.789v0c0.553 0.674 0.933 1.611 1.14 2.811 0.208 1.2 0.23 2.174 0.068 2.922v0c-0.057 0.268-0.173 0.387-0.346 0.357v0c-0.08-0.002-0.12-0.039-0.12-0.112 0-0.073 0.004-0.126 0.014-0.16v0c0.089-0.448 0.047-1.063-0.124-1.843v0c-0.307-1.456-0.732-2.577-1.273-3.365v0c-0.262-0.348-0.548-0.567-0.856-0.658-0.309-0.091-0.508 0.014-0.598 0.316v0c-0.071 0.242-0.068 0.6 0.011 1.076v0c0.157 1.002 0.601 2.141 1.335 3.416 0.733 1.275 1.542 2.207 2.426 2.797v0c0.274 0.183 0.556 0.317 0.845 0.403 0.289 0.085 0.601 0.042 0.935-0.129 0.333-0.164 0.574-0.498 0.723-1.002v0c0.167-0.564 0.21-1.256 0.131-2.075v0c-0.242-2.371-1.063-4.384-2.465-6.038v0c-0.114-0.158-0.114-0.271 0.001-0.339v0c0.062-0.062 0.12-0.085 0.174-0.069 0.06 0.018 0.12 0.065 0.178 0.14v0c0.767 0.84 1.389 1.797 1.867 2.873v0c0.93 2.092 1.163 3.924 0.699 5.494v0c-0.398 1.35-1.081 2.177-2.047 2.484v0c-0.375 0.108-0.787 0.096-1.238-0.037-0.45-0.133-0.948-0.411-1.494-0.836v0c-0.929-0.785-1.731-2.11-2.407-3.973-0.667-1.869-0.868-3.253-0.603-4.153z" fill="#ffffff" data-fill-palette-color="primary"></path><path d="M0.2 139.099c0-4.132 3.35-7.482 7.482-7.482 4.132 0 7.482 3.35 7.483 7.482 0 4.132-3.35 7.482-7.483 7.482-4.132 0-7.482-3.35-7.482-7.482z" fill="#ffffff" data-fill-palette-color="primary"></path><path d="M264.835 139.099c0-4.132 3.35-7.482 7.483-7.482 4.132 0 7.482 3.35 7.482 7.482 0 4.132-3.35 7.482-7.482 7.482-4.132 0-7.482-3.35-7.483-7.482z" fill="#ffffff" data-fill-palette-color="primary"></path></g><g id="text-1"></g></svg></g></svg></g></svg></g></svg></g><defs></defs></svg><rect width="280" height="280" fill="none" stroke="none" visibility="hidden"></rect></g></svg></g></svg>